<?xml version="1.0" standalone="no"?>
<!DOCTYPE svg PUBLIC "-//W3C//DTD SVG 20010904//EN"
 "http://www.w3.org/TR/2001/REC-SVG-20010904/DTD/svg10.dtd">
<svg version="1.0" xmlns="http://www.w3.org/2000/svg"
 width="547.000000pt" height="547.000000pt" viewBox="0 0 547.000000 547.000000"
 preserveAspectRatio="xMidYMid meet">
<metadata>
Created by potrace 1.11, written by Peter Selinger 2001-2013
</metadata>
<g transform="translate(0.000000,547.000000) scale(0.100000,-0.100000)"
fill="#000000" stroke="none">
<path d="M3103 4643 c-120 -248 -271 -564 -347 -728 -21 -44 -42 -87 -46 -95
-5 -8 -20 -38 -34 -67 -21 -44 -29 -53 -58 -57 -18 -3 -44 -8 -58 -10 -167
-28 -345 -86 -648 -210 -92 -38 -115 -44 -126 -34 -7 7 -53 49 -101 93 -49 44
-93 85 -99 90 -6 6 -74 66 -151 135 -77 69 -147 132 -155 140 -8 9 -53 49
-100 90 -47 41 -92 82 -100 90 -18 18 -195 178 -230 208 -14 12 -29 22 -34 22
-5 1 -18 -20 -28 -47 -23 -59 -106 -341 -113 -385 -3 -18 -8 -40 -10 -48 -2
-8 -6 -28 -9 -45 -3 -16 -11 -61 -18 -100 -7 -39 -12 -145 -12 -240 0 -138 4
-188 21 -265 28 -118 60 -213 107 -310 35 -73 95 -158 81 -115 -24 74 -64 249
-71 310 -3 22 -7 46 -9 53 -3 7 -7 45 -11 85 -3 40 -8 75 -11 79 -10 18 -2
239 13 326 28 166 119 439 143 430 9 -3 577 -745 605 -790 9 -14 6 -21 -13
-34 -102 -72 -304 -258 -416 -385 -60 -67 -167 -206 -211 -274 -21 -33 -57
-85 -79 -115 -53 -72 -154 -230 -191 -300 -16 -30 -32 -57 -35 -60 -12 -10
-78 -148 -73 -153 3 -2 22 -1 42 3 20 5 54 11 75 14 61 10 108 17 127 21 10 2
40 7 67 11 26 3 57 8 68 11 11 2 37 6 59 9 l38 6 -43 -38 c-155 -139 -275
-292 -393 -502 -20 -35 -36 -68 -36 -74 0 -9 114 -6 205 6 26 3 77 8 220 22
93 8 160 16 165 19 3 2 11 1 17 -3 7 -5 1 -27 -18 -67 -129 -271 -176 -381
-165 -387 6 -3 31 -3 56 2 25 4 68 11 95 14 47 6 96 13 155 21 14 2 48 7 75
10 28 4 61 8 75 10 14 2 62 9 108 16 45 6 85 15 88 20 3 5 -112 8 -257 8 -144
0 -263 2 -266 5 -2 2 4 24 15 48 37 83 151 363 154 377 3 12 -37 15 -245 17
-137 1 -251 4 -253 7 -8 7 85 154 157 249 35 46 107 128 161 182 53 54 95 103
92 108 -3 4 -9 6 -13 4 -4 -3 -77 -8 -161 -11 -85 -3 -166 -8 -178 -10 -30 -5
-28 -1 41 111 81 130 164 235 285 358 273 277 601 453 967 521 129 23 393 23
475 0 8 -2 26 -6 40 -9 134 -23 312 -95 443 -179 68 -45 197 -148 197 -158 0
-5 7 -9 15 -9 10 0 15 11 16 33 1 128 27 240 79 354 45 96 46 98 131 182 112
113 247 165 429 164 115 0 186 -12 300 -49 78 -26 257 -112 299 -143 l23 -18
-106 -88 c-58 -48 -104 -90 -101 -93 3 -3 38 -7 78 -9 106 -5 240 -30 345 -65
51 -17 91 -32 89 -34 -5 -5 -349 -126 -375 -131 -12 -3 -25 -9 -28 -14 -3 -5
-14 -9 -25 -9 -10 0 -19 -4 -19 -8 0 -9 33 -24 175 -77 84 -32 158 -66 302
-139 31 -15 29 -23 -9 -31 -47 -11 -225 -96 -211 -102 7 -2 50 7 95 21 46 13
129 37 186 52 56 15 102 30 102 34 0 26 -270 164 -402 206 -32 10 -58 21 -58
25 0 3 95 38 212 77 117 38 214 74 216 80 7 22 -219 113 -313 127 -23 3 -51 7
-63 10 -12 2 -59 7 -105 11 -45 3 -83 7 -85 9 -1 1 55 35 125 76 69 41 128 79
130 84 1 6 -23 24 -54 40 -32 17 -114 62 -184 101 -138 78 -242 129 -359 176
-68 27 -233 84 -270 93 -132 32 -200 48 -220 51 -14 3 -61 11 -105 18 -139 24
-166 27 -320 32 -82 3 -151 7 -153 9 -9 8 213 727 226 732 25 10 94 -31 153
-89 138 -138 276 -415 303 -608 5 -40 21 -25 26 27 23 221 -39 427 -190 628
-66 88 -175 203 -248 262 -26 21 -56 46 -66 56 -11 9 -22 17 -26 17 -3 0 -33
-57 -67 -127z"/>
<path d="M3747 3009 c-164 -17 -321 -147 -343 -285 -3 -21 -8 -42 -10 -45 -7
-13 18 -133 35 -168 39 -75 129 -150 257 -215 106 -53 162 -72 408 -141 126
-35 231 -67 235 -71 3 -4 1 -9 -5 -11 -47 -17 -166 -131 -216 -207 -137 -212
-19 -348 304 -350 60 -1 108 -3 108 -4 0 -13 -62 -84 -104 -121 -96 -82 -245
-135 -436 -156 -30 -3 -68 -8 -85 -11 -41 -8 -331 -7 -375 1 -223 40 -360 83
-555 172 -152 70 -290 118 -402 139 -48 9 -96 18 -107 20 -105 20 -440 24
-459 5 -8 -8 -7 -11 4 -12 7 0 28 -2 44 -4 17 -1 71 -5 121 -9 51 -3 98 -8
105 -10 8 -3 39 -7 69 -11 159 -17 324 -74 638 -219 199 -92 351 -136 562
-161 102 -12 338 -13 410 -2 19 4 67 11 105 16 84 13 122 20 153 26 36 9 26 0
-40 -33 -54 -27 -166 -63 -238 -77 -12 -2 -29 -6 -38 -9 -9 -3 -33 -7 -52 -10
-19 -3 -71 -13 -115 -22 -44 -8 -93 -18 -110 -21 -76 -13 -218 -54 -286 -82
-84 -35 -229 -125 -229 -141 0 -7 3 -10 8 -8 4 2 36 17 72 35 112 54 306 111
470 137 19 3 46 8 60 10 25 4 74 11 160 22 133 17 314 79 426 145 172 103 282
217 389 403 85 146 108 214 108 316 1 107 -26 167 -97 221 -54 41 -77 48 -366
119 -113 28 -234 59 -270 70 -36 10 -94 27 -128 38 l-64 19 55 27 c93 45 163
138 201 265 31 104 15 109 -40 14 -47 -82 -124 -161 -182 -187 -23 -11 -45
-17 -47 -14 -3 3 -1 18 5 33 16 42 14 126 -4 187 -29 99 -117 169 -182 144
-15 -6 -16 -8 0 -24 39 -44 0 -108 -59 -99 -27 4 -34 2 -38 -13 -8 -32 0 -136
13 -160 18 -34 5 -34 -24 1 -128 151 -75 325 128 420 94 44 159 52 283 34 24
-3 46 -7 50 -7 5 -1 37 -11 73 -24 77 -28 70 -27 70 -10 0 7 -30 27 -67 43
-133 59 -249 82 -356 72z"/>
<path d="M2195 2716 c-140 -26 -265 -77 -351 -143 -46 -35 -31 -40 37 -12 165
66 377 91 538 65 50 -8 233 -55 239 -61 2 -2 -14 -8 -37 -14 -23 -6 -60 -16
-83 -22 -127 -33 -265 -105 -365 -191 -109 -92 -212 -236 -115 -160 167 132
377 232 542 258 14 2 34 6 46 9 11 2 45 7 75 11 30 3 56 8 59 10 4 1 51 6 105
10 55 4 111 10 125 14 25 6 25 7 -15 32 -136 85 -318 164 -437 191 -83 18
-271 20 -363 3z"/>
</g>
</svg>
