<?xml version="1.0" encoding="utf-8"?>
<svg version="1.1" xmlns="http://www.w3.org/2000/svg" xmlns:xlink="http://www.w3.org/1999/xlink" x="0px" y="0px"
	 viewBox="0 0 354.3 311.8" style="enable-background:new 0 0 354.3 311.8;" xml:space="preserve">
<style type="text/css">
	.foxycolor{fill:#A5925D;}
    .foxwhite{fill:#FFFFFF;}
</style>
<g id="Ebene_1">
	<g>
		<path class="foxycolor" d="M154,296.3c-77.2,0-140-62.8-140-140c0-77.2,62.8-140,140-140c67.6,0,125.5,48.2,137.7,114.6l-1.6,0.3
			C278.1,65.6,220.8,18,154,18C77.7,18,15.6,80.1,15.6,156.4S77.7,294.8,154,294.8c43.6,0,85.2-21,111.3-56.1l1.3,0.9
			C240.2,275.1,198.1,296.3,154,296.3"/>
		<path class="foxycolor" d="M154,304.2c-81.5,0-147.9-66.3-147.9-147.9C6.1,74.8,72.4,8.5,154,8.5c71.4,0,132.6,50.9,145.5,121.1
			l-4.7,0.9C282.3,62.5,223.1,13.2,154,13.2C75,13.2,10.8,77.5,10.8,156.4c0,78.9,64.2,143.1,143.1,143.1c45.1,0,88.2-21.7,115.1-58
			l3.8,2.8C245.1,281.8,200.6,304.2,154,304.2"/>
		<path class="foxycolor" d="M154.9,265.5c-60.3,0-109.3-48.8-109.3-108.9s49-108.9,109.3-108.9c53.2,0,96.5,37.4,107.7,93l-1.7,0.3
			c-11.1-54.8-53.7-91.6-106-91.6c-59.3,0-107.6,48.1-107.6,107.2c0,59.1,48.3,107.2,107.6,107.2c34.1,0,69.5-18.2,88.2-45.3l1.4,1
			C225.5,247,189.5,265.5,154.9,265.5"/>
		<path class="foxycolor" d="M282.4,127c0-0.2-0.1-0.4-0.2-0.7c-0.1-0.2-0.1-0.4-0.2-0.5c-0.1-0.1-0.1-0.2-0.2-0.3
			c-0.1-0.1-0.1-0.1-0.2-0.1c-0.1,0-0.1,0-0.2,0l-5.1-0.9c-0.5-0.1-1-0.2-1.5-0.2c-0.5-0.1-1-0.1-1.5-0.2l0,0c0.4-0.3,0.8-0.7,1.2-1
			c0.4-0.3,0.8-0.7,1.2-1l3.9-3.4c0.1-0.1,0.1-0.1,0.2-0.2c0-0.1,0.1-0.1,0.1-0.2c0-0.1,0-0.2,0-0.4c0-0.2-0.1-0.4-0.1-0.6
			c-0.1-0.3-0.1-0.5-0.2-0.6c-0.1-0.2-0.1-0.3-0.2-0.3c-0.1,0-0.2,0-0.3,0c-0.1,0-0.2,0.1-0.4,0.3l-7.6,6.9l-5.8,1.6
			c-0.1,0-0.1,0-0.2,0.1c0,0-0.1,0.1-0.1,0.2c0,0.1,0,0.2,0,0.3c0,0.1,0.1,0.3,0.1,0.5c0.1,0.2,0.1,0.4,0.2,0.5
			c0.1,0.1,0.1,0.2,0.2,0.3c0,0.1,0.1,0.1,0.2,0.1c0.1,0,0.1,0,0.2,0l5.8-1.6l10.1,2c0.2,0,0.4,0.1,0.5,0c0.1,0,0.2-0.1,0.2-0.1
			C282.4,127.3,282.4,127.1,282.4,127 M277.3,111c0.1-0.1,0.1-0.1,0.1-0.2c0-0.1,0-0.1,0-0.2l-4.4-10.4c0-0.1-0.1-0.1-0.1-0.1
			c-0.1,0-0.1-0.1-0.2-0.1c-0.1,0-0.2,0-0.3,0c-0.1,0-0.3,0.1-0.4,0.1c-0.1,0.1-0.3,0.1-0.4,0.2c-0.1,0.1-0.2,0.1-0.2,0.2
			c-0.1,0.1-0.1,0.1-0.1,0.2c0,0.1,0,0.1,0,0.2l1.8,4.2l-13,5.4c-0.1,0-0.1,0.1-0.1,0.1c0,0.1,0,0.1,0,0.2c0,0.1,0,0.2,0.1,0.3
			c0,0.1,0.1,0.3,0.2,0.5c0.1,0.2,0.2,0.4,0.2,0.5c0.1,0.1,0.1,0.2,0.2,0.3c0.1,0.1,0.1,0.1,0.2,0.1c0.1,0,0.1,0,0.2,0l13-5.4
			l1.8,4.2c0,0.1,0.1,0.1,0.1,0.1c0.1,0,0.1,0.1,0.2,0.1c0.1,0,0.2,0,0.3,0c0.1,0,0.2-0.1,0.4-0.1c0.1-0.1,0.3-0.1,0.4-0.2
			C277.1,111.1,277.2,111.1,277.3,111 M269.8,94.7c0-0.1,0-0.1,0-0.2c0-0.1,0-0.2-0.1-0.3c0-0.1-0.1-0.3-0.2-0.5
			c-0.1-0.2-0.2-0.3-0.3-0.4c-0.1-0.1-0.2-0.2-0.2-0.3c-0.1-0.1-0.1-0.1-0.2-0.1c-0.1,0-0.1,0-0.2,0l-13.7,7.4
			c-0.1,0-0.1,0.1-0.1,0.1c0,0.1,0,0.1,0,0.2c0,0.1,0,0.2,0.1,0.3c0,0.1,0.1,0.3,0.2,0.5c0.1,0.2,0.2,0.3,0.3,0.4
			c0.1,0.1,0.2,0.2,0.2,0.3c0.1,0.1,0.1,0.1,0.2,0.1c0.1,0,0.1,0,0.2,0l13.7-7.4C269.7,94.8,269.8,94.7,269.8,94.7 M262.4,82.5
			c0-0.1,0-0.1,0-0.2c0-0.1-0.1-0.2-0.1-0.3c-0.1-0.1-0.2-0.3-0.3-0.4c-0.1-0.2-0.2-0.3-0.3-0.4c-0.1-0.1-0.2-0.2-0.3-0.2
			c-0.1-0.1-0.1-0.1-0.2-0.1c-0.1,0-0.1,0-0.2,0.1l-12.5,8.4c-0.3,0.2-0.4,0.4-0.4,0.6c0,0.2,0,0.4,0.1,0.6l4,6
			c0,0.1,0.1,0.1,0.2,0.1c0.1,0,0.1,0,0.2,0c0.1,0,0.2,0,0.3-0.1c0.1,0,0.2-0.1,0.4-0.2c0.1-0.1,0.3-0.2,0.3-0.3
			c0.1-0.1,0.2-0.2,0.2-0.2c0-0.1,0.1-0.1,0.1-0.2c0-0.1,0-0.1-0.1-0.2l-3.3-4.8l11.7-7.9C262.3,82.6,262.3,82.6,262.4,82.5
			 M253.6,71.6c0-0.1,0.1-0.2,0.1-0.3c0-0.1,0-0.2-0.1-0.3c0-0.1-0.1-0.2-0.2-0.4c-0.1-0.1-0.2-0.3-0.4-0.5
			c-0.2-0.2-0.3-0.3-0.4-0.5c-0.1-0.1-0.2-0.2-0.3-0.3c-0.1-0.1-0.2-0.1-0.3-0.1c-0.1,0-0.2,0-0.3,0l-15,5.8
			c-0.2,0.1-0.3,0.1-0.4,0.2c-0.1,0.1-0.1,0.1-0.1,0.2c0,0.1,0,0.2,0.1,0.3c0.1,0.1,0.2,0.3,0.4,0.5c0.2,0.2,0.3,0.3,0.4,0.4
			c0.1,0.1,0.2,0.2,0.3,0.2c0.1,0,0.2,0.1,0.2,0c0.1,0,0.1,0,0.2-0.1l3.8-1.6l4.4,5.1l-2.1,3.7c0,0.1-0.1,0.1-0.1,0.2
			c0,0.1,0,0.1,0,0.2c0,0.1,0.1,0.2,0.2,0.3c0.1,0.1,0.2,0.3,0.4,0.5c0.2,0.2,0.3,0.3,0.4,0.5c0.1,0.1,0.2,0.2,0.3,0.2
			c0.1,0,0.2,0,0.3-0.1c0.1-0.1,0.2-0.2,0.3-0.4L253.6,71.6z M251.3,71.6L247,79l-3.7-4.3L251.3,71.6L251.3,71.6z M243.7,61.1
			c0-0.1,0.1-0.1,0.1-0.2c0-0.1,0-0.1-0.1-0.2c0-0.1-0.1-0.2-0.2-0.3c-0.1-0.1-0.2-0.2-0.4-0.4c-0.2-0.1-0.3-0.2-0.4-0.3
			c-0.1-0.1-0.2-0.1-0.3-0.2c-0.1,0-0.2,0-0.2,0c-0.1,0-0.1,0-0.2,0.1l-6.5,7.5c-0.5,0.6-1,1-1.5,1.3c-0.5,0.3-1,0.5-1.5,0.5
			c-0.5,0.1-1,0-1.5-0.2c-0.5-0.2-1-0.5-1.5-0.9c-0.5-0.4-0.8-0.8-1.1-1.3c-0.2-0.5-0.4-0.9-0.4-1.5c0-0.5,0.1-1,0.3-1.6
			c0.2-0.5,0.6-1.1,1.1-1.7l6.4-7.4c0-0.1,0.1-0.1,0.1-0.2c0-0.1,0-0.1,0-0.2c0-0.1-0.1-0.2-0.2-0.3c-0.1-0.1-0.2-0.2-0.4-0.4
			c-0.2-0.1-0.3-0.3-0.4-0.3c-0.1-0.1-0.2-0.1-0.3-0.2c-0.1,0-0.2,0-0.2,0c-0.1,0-0.1,0-0.2,0.1l-6.6,7.6c-0.7,0.8-1.1,1.5-1.4,2.3
			c-0.3,0.8-0.4,1.5-0.3,2.2c0.1,0.7,0.3,1.4,0.7,2.1c0.4,0.7,0.9,1.3,1.6,1.9c0.7,0.6,1.5,1.1,2.3,1.4c0.8,0.3,1.5,0.4,2.3,0.4
			c0.8-0.1,1.5-0.3,2.2-0.7c0.7-0.4,1.4-1,2.1-1.7L243.7,61.1z M225.6,51.8c0.3-1,0.3-2,0.2-2.9c-0.2-0.9-0.5-1.7-1.1-2.5
			c-0.6-0.8-1.4-1.5-2.4-2.1c-1.1-0.6-2.1-1-3.1-1.2c-1-0.1-2-0.1-2.9,0.2c-0.9,0.3-1.8,0.8-2.6,1.6c-0.8,0.7-1.5,1.7-2.2,2.8
			c-0.7,1.1-1.2,2.2-1.5,3.3c-0.3,1-0.4,2-0.2,2.9c0.1,0.9,0.5,1.7,1.1,2.5c0.6,0.8,1.4,1.5,2.4,2.1c0.7,0.4,1.4,0.7,2,0.9
			c0.6,0.2,1.2,0.3,1.7,0.2c0.2,0.7,0.4,1.4,0.7,2c0.3,0.6,0.6,1.2,0.8,1.6c0.3,0.5,0.5,0.9,0.8,1.2c0.2,0.3,0.4,0.5,0.6,0.6
			c0,0,0.1,0,0.1,0c0.1,0,0.1,0,0.2-0.1c0.1,0,0.2-0.1,0.2-0.2c0.1-0.1,0.2-0.2,0.3-0.4c0.1-0.2,0.2-0.4,0.3-0.5
			c0-0.1,0.1-0.3,0-0.4c0-0.1-0.1-0.2-0.2-0.4c-0.1-0.1-0.3-0.4-0.4-0.6c-0.2-0.3-0.4-0.7-0.6-1.1c-0.2-0.5-0.5-1.1-0.8-1.8
			c0.5-0.1,1-0.3,1.4-0.6c0.5-0.3,0.9-0.6,1.3-1c0.4-0.4,0.8-0.8,1.2-1.3c0.4-0.5,0.8-1,1.1-1.6C224.8,53.9,225.3,52.8,225.6,51.8
			 M223.6,49.4c0,0.7-0.1,1.4-0.4,2.2c-0.3,0.8-0.6,1.5-1.1,2.3c-0.5,0.8-1,1.4-1.5,2c-0.6,0.6-1.2,1-1.8,1.3
			c-0.6,0.3-1.3,0.4-2.1,0.4c-0.7,0-1.5-0.3-2.3-0.8c-0.8-0.5-1.4-1-1.8-1.6c-0.4-0.6-0.6-1.3-0.6-2c0-0.7,0.1-1.4,0.4-2.2
			c0.3-0.8,0.7-1.6,1.2-2.4c0.5-0.7,1-1.4,1.5-2c0.5-0.6,1.1-1,1.8-1.3c0.6-0.3,1.3-0.4,2.1-0.4c0.7,0,1.5,0.3,2.3,0.8
			c0.8,0.5,1.4,1,1.8,1.6C223.4,48.1,223.6,48.7,223.6,49.4 M214.1,103.2c0,0-2-1.1-5.4-2.8c-7.2-4.5-15.1-7.8-23.3-9.7
			c-0.7-0.2-6.4-1.4-9.9-1.8c-3.7-0.5-9.8-0.4-9.9-0.4h0c-0.1,0-0.3-0.1-0.4-0.2c-0.1-0.1-0.1-0.3-0.1-0.4l6.3-21
			c0.1-0.2,0.2-0.3,0.5-0.3c0.2,0,5.1,0.4,10.5,11.8c1.7,3.5,2.7,6.7,3,9.6c0,0.1,0.1,0.4,0.3,0.3c0.6-3.5,0.8-9.4-2.1-15.2
			c-4.6-8.9-12.9-14.6-13-14.7c-0.1,0-0.1,0-0.2,0c-0.1,0-0.1,0.1-0.1,0.1l-14.8,31.1c-7.1,1.1-14,3.2-20.4,6.1
			c-2.7,1-4.1,1.7-4.5,1.9l-28.7-25.9c-0.1,0-0.1-0.1-0.2-0.1c-0.1,0-0.1,0.1-0.2,0.1c-0.1,0.2-7.1,17.9-5.1,30.6
			c1.2,7.3,3.7,12.2,5.6,15c0,0.1,0.1,0.1,0.2,0.1c0,0,0,0,0,0c0.1,0,0.1,0,0.1-0.1c-1.1-3.5-2.7-9.7-3.2-18.2
			c-0.6-9,4.1-19.1,4.3-19.5c0.1-0.1,0.2-0.2,0.4-0.3c0.2,0,0.3,0.1,0.4,0.2l17.6,23.2c0.1,0.1,0.1,0.2,0.1,0.3
			c0,0.1-0.1,0.2-0.2,0.3c0,0-2.1,1.5-4.7,3.7c0,0,0,0,0,0c-2,1.7-3.9,3.5-5.7,5.5l-3.5,4c-2.2,2.7-4.3,5.5-6.1,8.5
			c-4.3,5.3-9.8,15.8-9.8,15.9c0,0.1,0,0.2,0,0.2c0.1,0.1,0.1,0.1,0.2,0.1l14-2.3c-1.2,1-3.9,3.3-6.9,6.8c-4,4.8-7.2,11.2-7.3,11.3
			c0,0.1,0,0.2,0,0.2c0,0.1,0.1,0.1,0.2,0.1l18-1.7l-6.1,13.2c0,0.1,0,0.2,0,0.2c0,0.1,0.1,0.1,0.2,0.1c0,0,0,0,0,0l18.9-2.6
			c0.1,0,0.2-0.1,0.2-0.2c0-0.1-0.1-0.2-0.2-0.2h0l-15.3,0.1l5.2-12.7c0-0.1,0-0.1,0-0.2c0-0.1-0.1-0.1-0.2-0.1l-14.6-0.1
			c0.2-0.6,1-2.2,3.7-6.1c3.8-5.4,8.6-9.4,8.6-9.4c0.1-0.1,0.1-0.2,0.1-0.3c0-0.1-0.1-0.1-0.2-0.1l-11.1,0.6
			c0.3-0.6,0.6-1.1,0.8-1.5c14.3-24.8,43.2-35.2,64.3-23c2.8,1.6,5.4,3.6,7.7,5.9c0.1,0.1,0.2,0.1,0.2,0c0.1,0,0.1-0.1,0.1-0.2
			c0-8.1,2.9-14.6,8-18.2c7.3-5.2,18.4-4,29.1,3l-6.2,5.1c-0.1,0.1-0.1,0.2-0.1,0.3c0,0.1,0.1,0.1,0.2,0.1c0,0,3.1-0.3,9,1
			c2.5,0.5,5,1.6,6.1,2l-13.2,4.7c-0.1,0-0.2,0.1-0.2,0.2s0.1,0.2,0.2,0.2c0,0,4.8,1.7,8.5,3.3c2,0.9,5.2,2.6,6.3,3.2
			c-1.4,0.4-5.1,1.6-7.5,3.2c-0.1,0.1-0.1,0.2-0.1,0.3c0,0.1,0.1,0.1,0.2,0.1c0,0,0,0,0.1,0c0,0,3.7-1.3,5.6-1.7
			c1.9-0.4,5.2-1.4,5.2-1.4c0.1,0,0.1-0.1,0.2-0.2c0-0.1,0-0.2-0.1-0.2c0,0-2.5-1.8-5.1-3c-4-1.9-7.5-3.1-8.9-3.5l13.2-4.4
			c0.1,0,0.1-0.1,0.1-0.2c0-0.1,0-0.2-0.1-0.2c-0.1,0-1.5-1.1-6.1-2.7c-4.3-1.4-9.1-1.5-11-1.5l8-4.7c0.1,0,0.1-0.1,0.1-0.2
			C214.2,103.3,214.1,103.2,214.1,103.2 M199.6,42c0.4-1.2,0.6-2.3,0.6-3.3c0-1-0.2-2-0.6-2.8c-0.4-0.9-1-1.6-1.8-2.3
			c-0.8-0.7-1.9-1.2-3.2-1.7l-3.5-1.2c-0.2-0.1-0.4-0.1-0.6,0c-0.2,0.1-0.4,0.3-0.5,0.6L185.4,45c-0.1,0.3-0.1,0.6,0,0.7
			c0.1,0.2,0.3,0.3,0.5,0.4l3.3,1.1c1.3,0.4,2.5,0.7,3.6,0.7c1.1,0,2-0.2,2.9-0.6c0.9-0.4,1.7-1.1,2.3-2
			C198.6,44.4,199.2,43.3,199.6,42 M197.9,38.9c0,0.8-0.2,1.6-0.5,2.4c-0.4,1-0.8,1.9-1.3,2.6c-0.5,0.7-1,1.2-1.7,1.6
			c-0.6,0.4-1.3,0.5-2.1,0.6c-0.8,0-1.6-0.1-2.6-0.5l-2.1-0.7l4.1-12l2.1,0.7c1.1,0.4,1.9,0.8,2.5,1.3c0.6,0.5,1,1.1,1.3,1.8
			C197.9,37.4,198,38.1,197.9,38.9 M181.6,36.5c0.2-1.3,0.3-2.5,0.2-3.5c-0.1-1.1-0.4-2-0.8-2.8c-0.5-0.8-1.1-1.4-1.9-2
			c-0.8-0.5-1.8-0.9-3-1.1c-1.2-0.2-2.3-0.2-3.3,0c-1,0.2-1.9,0.6-2.6,1.3c-0.7,0.6-1.4,1.4-1.9,2.4c-0.5,1-0.9,2.1-1.1,3.4
			c-0.2,1.3-0.3,2.5-0.2,3.6c0.1,1.1,0.4,2,0.8,2.8c0.4,0.8,1.1,1.4,1.9,2c0.8,0.5,1.8,0.9,3,1.1c1.2,0.2,2.3,0.2,3.3,0
			c1-0.2,1.9-0.6,2.6-1.3c0.7-0.6,1.4-1.4,1.9-2.4C181,38.9,181.4,37.8,181.6,36.5 M179.6,33.7c0,0.8-0.1,1.7-0.2,2.6
			c-0.2,0.9-0.4,1.7-0.7,2.4c-0.3,0.7-0.7,1.4-1.2,1.9c-0.5,0.5-1.1,0.9-1.8,1.1c-0.7,0.2-1.5,0.3-2.4,0.1c-0.9-0.2-1.7-0.5-2.3-0.9
			c-0.6-0.4-1-1-1.2-1.6c-0.3-0.6-0.4-1.4-0.4-2.2c0-0.8,0.1-1.7,0.2-2.6c0.2-0.9,0.4-1.6,0.7-2.4c0.3-0.7,0.7-1.4,1.2-1.9
			c0.5-0.5,1.1-0.9,1.8-1.1c0.7-0.2,1.5-0.3,2.4-0.1c0.9,0.2,1.7,0.5,2.2,0.9c0.6,0.4,1,1,1.3,1.6C179.4,32.1,179.5,32.8,179.6,33.7
			 M162.3,37.2c0.3-1.1,0.5-2.2,0.5-3.6c0-1.3-0.1-2.5-0.4-3.5c-0.3-1-0.7-1.9-1.3-2.6c-0.6-0.7-1.3-1.2-2.2-1.6
			c-0.9-0.4-1.9-0.6-3.1-0.6c-1.2,0-2.3,0.2-3.3,0.6c-0.9,0.4-1.7,1-2.3,1.7c-0.6,0.7-1.1,1.6-1.4,2.7c-0.3,1-0.5,2.2-0.5,3.5
			c0,1.3,0.1,2.5,0.4,3.6c0.3,1,0.7,1.9,1.3,2.6c0.6,0.7,1.3,1.2,2.2,1.6s1.9,0.6,3.2,0.6c1.2,0,2.3-0.2,3.3-0.6
			c0.9-0.4,1.7-1,2.3-1.7C161.5,39.1,162,38.2,162.3,37.2 M160.5,33.8c0,0.9-0.1,1.7-0.3,2.5c-0.2,0.8-0.5,1.5-0.9,2.1
			c-0.4,0.6-0.9,1.1-1.6,1.4c-0.6,0.3-1.4,0.5-2.4,0.5c-1,0-1.7-0.2-2.4-0.5c-0.6-0.3-1.1-0.8-1.5-1.4c-0.4-0.6-0.6-1.3-0.8-2.1
			c-0.2-0.8-0.2-1.7-0.2-2.6c0-0.9,0.1-1.7,0.3-2.5c0.2-0.8,0.5-1.5,0.9-2c0.4-0.6,0.9-1.1,1.6-1.4c0.6-0.4,1.4-0.5,2.4-0.5
			c0.9,0,1.7,0.2,2.4,0.5c0.6,0.3,1.1,0.8,1.5,1.4c0.4,0.6,0.6,1.3,0.8,2.1C160.5,32,160.5,32.8,160.5,33.8 M142.8,35.1
			c0-0.1,0.1-0.2,0.1-0.3c0-0.1,0-0.2,0-0.4c0-0.2,0-0.3-0.1-0.4c0-0.1-0.1-0.2-0.1-0.3c0-0.1-0.1-0.1-0.2-0.1c-0.1,0-0.1,0-0.2,0
			l-5.6,0.7l-0.7-5.5L142,28c0.1,0,0.1,0,0.2-0.1c0.1,0,0.1-0.1,0.1-0.2c0-0.1,0.1-0.2,0.1-0.3c0-0.1,0-0.3,0-0.4
			c0-0.2,0-0.3-0.1-0.4c0-0.1-0.1-0.2-0.1-0.3c-0.1-0.1-0.1-0.1-0.2-0.1c-0.1,0-0.1,0-0.2,0l-7.3,0.9c-0.2,0-0.4,0.1-0.5,0.3
			c-0.2,0.1-0.2,0.4-0.2,0.7l1.8,15c0,0.1,0,0.1,0.1,0.2c0,0,0.1,0.1,0.2,0.1c0.1,0,0.2,0,0.3,0c0.1,0,0.3,0,0.5,0
			c0.2,0,0.4-0.1,0.5-0.1c0.1,0,0.2-0.1,0.3-0.1c0.1,0,0.1-0.1,0.2-0.1c0-0.1,0-0.1,0-0.2l-0.8-6.7l5.6-0.7c0.1,0,0.1,0,0.2-0.1
			C142.7,35.2,142.8,35.2,142.8,35.1 M120.4,44.8c0.4-0.9,0.7-1.9,0.7-3c0-1.1-0.2-2.3-0.7-3.7c-0.4-1.2-0.9-2.1-1.5-3
			c-0.6-0.8-1.4-1.4-2.2-1.9c-0.8-0.4-1.8-0.7-2.8-0.7c-1,0-2.2,0.2-3.6,0.6l-3.5,1.2c-0.2,0.1-0.3,0.2-0.5,0.4
			c-0.1,0.2-0.1,0.4,0,0.7l4.6,13.8c0.1,0.3,0.3,0.5,0.5,0.6c0.2,0.1,0.4,0.1,0.6,0l3.3-1.1c1.3-0.4,2.4-1,3.2-1.6
			C119.3,46.4,120,45.7,120.4,44.8 M118.9,41.8c0,0.8-0.1,1.6-0.4,2.3c-0.3,0.7-0.7,1.2-1.3,1.7c-0.6,0.5-1.4,0.9-2.4,1.2l-2.1,0.7
			l-4-12l2.1-0.7c1.1-0.4,2-0.5,2.8-0.4c0.8,0.1,1.5,0.3,2.1,0.7c0.6,0.4,1.1,0.9,1.6,1.5s0.8,1.4,1.1,2.2
			C118.7,40,118.8,40.9,118.9,41.8 M105.5,52.5c0-0.1,0.1-0.2,0.1-0.4c0-0.1,0-0.3-0.1-0.4l-6.8-13.4c0-0.1-0.1-0.1-0.1-0.1
			c-0.1,0-0.1,0-0.2,0c-0.1,0-0.2,0-0.3,0.1c-0.1,0-0.3,0.1-0.5,0.2c-0.2,0.1-0.4,0.2-0.5,0.3c-0.1,0.1-0.2,0.2-0.3,0.2
			c-0.1,0.1-0.1,0.1-0.1,0.2c0,0.1,0,0.1,0,0.2l4,7.9c0.3,0.6,0.6,1.2,0.9,1.8c0.3,0.6,0.7,1.2,1,1.8l0,0c-0.4-0.3-0.7-0.5-1.1-0.8
			c-0.4-0.3-0.7-0.5-1.1-0.8c-0.4-0.3-0.7-0.5-1.1-0.8c-0.4-0.3-0.8-0.5-1.2-0.8L91.5,43c-0.2-0.2-0.5-0.3-0.6-0.4
			c-0.2-0.1-0.4-0.2-0.5-0.2c-0.2,0-0.3,0-0.5,0c-0.2,0-0.4,0.1-0.6,0.2l-0.9,0.5c-0.2,0.1-0.4,0.3-0.5,0.5
			c-0.1,0.2-0.1,0.5,0.1,0.8l6.8,13.4c0,0.1,0.1,0.1,0.1,0.1c0.1,0,0.1,0,0.2,0c0.1,0,0.2,0,0.3-0.1c0.1,0,0.3-0.1,0.5-0.2
			c0.2-0.1,0.3-0.2,0.5-0.3c0.1-0.1,0.2-0.2,0.3-0.2c0.1-0.1,0.1-0.1,0.1-0.2c0-0.1,0-0.1,0-0.2l-4.5-8.8c-0.3-0.6-0.6-1.1-0.9-1.7
			c-0.3-0.6-0.6-1.1-0.9-1.6l0,0c0.4,0.3,0.9,0.7,1.4,1c0.5,0.3,0.9,0.7,1.4,1l8.6,6c0.3,0.2,0.6,0.4,0.8,0.5
			c0.2,0.1,0.4,0.2,0.6,0.2c0.2,0,0.4,0,0.5,0c0.2,0,0.4-0.1,0.6-0.2L105,53c0.1-0.1,0.2-0.1,0.3-0.2
			C105.4,52.7,105.4,52.6,105.5,52.5 M90.9,59.7l-13.4-8.8c-0.1-0.1-0.2-0.1-0.2-0.1c-0.1,0-0.2,0-0.3,0c-0.1,0-0.2,0.1-0.4,0.2
			c-0.1,0.1-0.3,0.2-0.5,0.4c-0.2,0.1-0.4,0.3-0.5,0.4c-0.1,0.1-0.2,0.2-0.3,0.3c-0.1,0.1-0.1,0.2-0.1,0.3c0,0.1,0,0.2,0,0.3
			L79.8,68c0.1,0.2,0.1,0.3,0.2,0.4c0.1,0.1,0.1,0.1,0.2,0.2c0.1,0,0.2,0,0.3-0.1c0.1-0.1,0.3-0.2,0.5-0.3c0.2-0.1,0.3-0.3,0.4-0.4
			c0.1-0.1,0.2-0.2,0.2-0.3c0-0.1,0.1-0.2,0.1-0.2c0-0.1,0-0.1,0-0.2l-1.3-3.9l5.4-4.1l3.5,2.3c0.1,0,0.1,0.1,0.2,0.1
			c0.1,0,0.1,0,0.2,0c0.1,0,0.2-0.1,0.3-0.2c0.1-0.1,0.3-0.2,0.5-0.4c0.2-0.2,0.4-0.3,0.5-0.4c0.1-0.1,0.2-0.2,0.2-0.3
			c0-0.1,0-0.2-0.1-0.3C91.2,59.9,91.1,59.8,90.9,59.7 M84.4,58l-4.5,3.4l-2.6-8.2l0,0L84.4,58z M73.8,240.5c0-0.1,0.1-0.2,0.1-0.3
			c0-0.1,0-0.2-0.1-0.3c-0.1-0.1-0.1-0.2-0.3-0.3c-0.1-0.1-0.3-0.3-0.5-0.5c-0.2-0.2-0.3-0.3-0.5-0.4c-0.1-0.1-0.2-0.2-0.3-0.2
			c-0.1,0-0.2-0.1-0.3-0.1c-0.1,0-0.2,0-0.3,0.1l-14.4,7.1c-0.2,0.1-0.3,0.2-0.4,0.2c-0.1,0.1-0.1,0.2-0.1,0.2
			c0,0.1,0.1,0.2,0.2,0.3c0.1,0.1,0.2,0.3,0.4,0.4c0.2,0.2,0.3,0.3,0.4,0.4c0.1,0.1,0.2,0.1,0.3,0.2c0.1,0,0.2,0,0.2,0
			c0.1,0,0.1,0,0.2-0.1l3.7-1.9l4.9,4.7l-1.7,3.8c0,0.1,0,0.1-0.1,0.2c0,0.1,0,0.1,0,0.2c0,0.1,0.1,0.2,0.2,0.3
			c0.1,0.1,0.2,0.3,0.4,0.4c0.2,0.2,0.3,0.3,0.5,0.4c0.1,0.1,0.2,0.1,0.3,0.1c0.1,0,0.2,0,0.2-0.1c0.1-0.1,0.2-0.2,0.2-0.4
			L73.8,240.5z M71.4,240.7l-3.6,7.8l-4.1-3.9L71.4,240.7L71.4,240.7z M69.3,78.7c0.4-1,0.6-2,0.6-2.9c0-1-0.3-2-0.9-2.9
			c-0.5-1-1.3-1.9-2.4-2.9c-0.9-0.8-1.8-1.4-2.8-1.8c-0.9-0.4-1.9-0.6-2.8-0.6c-0.9,0-1.9,0.3-2.8,0.8c-0.9,0.5-1.9,1.2-2.8,2.3
			l-2.5,2.7c-0.1,0.1-0.2,0.3-0.2,0.5c0,0.2,0.1,0.4,0.3,0.7l10.8,9.7c0.2,0.2,0.5,0.3,0.7,0.3c0.2,0,0.4-0.1,0.5-0.3l2.3-2.6
			C68.2,80.6,68.9,79.6,69.3,78.7 M67.8,76c0.1,0.7,0,1.4-0.3,2.1c-0.3,0.7-0.8,1.4-1.5,2.2L64.5,82l-9.4-8.5l1.5-1.6
			c0.8-0.8,1.5-1.4,2.2-1.7c0.7-0.3,1.4-0.5,2.1-0.4c0.7,0,1.4,0.2,2.1,0.6c0.7,0.3,1.4,0.8,2,1.4c0.8,0.7,1.5,1.5,1.9,2.2
			C67.5,74.6,67.7,75.3,67.8,76 M50.2,88.8L46,85.9l3.6-5.3c0-0.1,0.1-0.1,0.1-0.2c0-0.1,0-0.1-0.1-0.2c0-0.1-0.1-0.1-0.2-0.2
			c-0.1-0.1-0.2-0.2-0.3-0.2c-0.1-0.1-0.3-0.2-0.4-0.2c-0.1,0-0.2-0.1-0.3-0.1c-0.1,0-0.2,0-0.2,0c-0.1,0-0.1,0.1-0.1,0.1l-4.3,6.4
			c-0.1,0.2-0.2,0.3-0.1,0.6c0,0.2,0.2,0.4,0.4,0.6l12,8.1c0.3,0.2,0.5,0.2,0.7,0.2c0.2-0.1,0.4-0.2,0.5-0.3l4.4-6.5
			c0-0.1,0.1-0.1,0.1-0.2c0-0.1,0-0.1-0.1-0.2c0-0.1-0.1-0.2-0.2-0.2c-0.1-0.1-0.2-0.2-0.3-0.2c-0.1-0.1-0.3-0.2-0.4-0.2
			c-0.1,0-0.2-0.1-0.3-0.1c-0.1,0-0.2,0-0.2,0c-0.1,0-0.1,0.1-0.1,0.1L56.5,93l-4.8-3.3l3-4.5c0-0.1,0.1-0.1,0.1-0.2
			c0-0.1,0-0.1,0-0.2c0-0.1-0.1-0.1-0.2-0.2c-0.1-0.1-0.2-0.2-0.3-0.2c-0.1-0.1-0.3-0.2-0.4-0.2c-0.1-0.1-0.2-0.1-0.3-0.1
			c-0.1,0-0.1,0-0.2,0c-0.1,0-0.1,0.1-0.1,0.1L50.2,88.8z M42.8,101.8l-4.5-2.3l2.9-5.7c0-0.1,0-0.1,0-0.2c0-0.1,0-0.1-0.1-0.2
			c0-0.1-0.1-0.1-0.2-0.2c-0.1-0.1-0.2-0.1-0.3-0.2c-0.1-0.1-0.3-0.1-0.4-0.2c-0.1,0-0.2-0.1-0.3-0.1c-0.1,0-0.1,0-0.2,0
			c-0.1,0-0.1,0.1-0.1,0.1L36,99.9c-0.1,0.2-0.1,0.4-0.1,0.6c0,0.2,0.2,0.4,0.5,0.5l12.9,6.6c0.3,0.2,0.5,0.2,0.7,0.1
			c0.2-0.1,0.3-0.2,0.4-0.4l3.6-7c0-0.1,0-0.1,0-0.2c0-0.1,0-0.1-0.1-0.2c0-0.1-0.1-0.1-0.2-0.2c-0.1-0.1-0.2-0.1-0.3-0.2
			c-0.1-0.1-0.3-0.1-0.4-0.2c-0.1,0-0.2-0.1-0.3,0c-0.1,0-0.2,0-0.2,0.1c-0.1,0-0.1,0.1-0.1,0.1l-2.9,5.7l-5.2-2.7l2.5-4.9
			c0-0.1,0-0.1,0-0.2c0-0.1,0-0.1-0.1-0.2c0-0.1-0.1-0.1-0.2-0.2S46.4,97,46.2,97c-0.1-0.1-0.3-0.1-0.4-0.2s-0.2-0.1-0.3-0.1
			c-0.1,0-0.1,0-0.2,0.1c-0.1,0-0.1,0.1-0.1,0.1L42.8,101.8z M34.4,107.7c0-0.1,0-0.1,0-0.2c0-0.1,0-0.1-0.1-0.2
			c-0.1-0.1-0.1-0.1-0.2-0.2c-0.1-0.1-0.2-0.1-0.4-0.2c-0.1-0.1-0.3-0.1-0.4-0.1c-0.1,0-0.2,0-0.3,0c-0.1,0-0.2,0-0.2,0.1
			c0,0-0.1,0.1-0.1,0.1l-2.5,6.9c-0.1,0.2-0.1,0.4,0,0.6c0.1,0.2,0.2,0.4,0.6,0.5l14.1,5.2c0.1,0,0.1,0,0.2,0c0.1,0,0.1-0.1,0.2-0.1
			c0.1-0.1,0.1-0.2,0.2-0.3c0.1-0.1,0.1-0.3,0.2-0.5c0.1-0.2,0.1-0.4,0.2-0.5c0-0.1,0-0.2,0-0.3c0-0.1,0-0.2-0.1-0.2
			c0-0.1-0.1-0.1-0.1-0.1l-6.4-2.3l1.9-5.3c0-0.1,0-0.1,0-0.2c0-0.1-0.1-0.1-0.1-0.2c-0.1-0.1-0.1-0.1-0.2-0.2
			c-0.1-0.1-0.2-0.1-0.4-0.2c-0.2-0.1-0.3-0.1-0.4-0.1c-0.1,0-0.2,0-0.3,0c-0.1,0-0.1,0-0.2,0.1c0,0-0.1,0.1-0.1,0.1l-1.9,5.3
			l-5.2-1.9L34.4,107.7z M32.9,131.4l-3.1-1c-0.1-0.1-0.2,0-0.3,0.1c-0.1,0.1-0.2,0.4-0.3,0.7c-0.1,0.4-0.1,0.6-0.1,0.8
			c0,0.1,0.1,0.2,0.3,0.2l3.3,0.3l-2.4,2.2c-0.1,0.1-0.1,0.2-0.1,0.3c0,0.1,0.2,0.3,0.5,0.6c0.3,0.3,0.5,0.4,0.6,0.4
			c0.1,0,0.3,0,0.3-0.1l1.9-2.7l0.7,3.2c0,0.1,0.1,0.2,0.3,0.2c0.1,0,0.4,0,0.8-0.1c0.4-0.1,0.6-0.2,0.7-0.3
			c0.1-0.1,0.1-0.2,0.1-0.3l-1.4-3l3.2,1c0.1,0.1,0.2,0,0.3-0.1c0.1-0.1,0.2-0.4,0.3-0.7c0.1-0.4,0.1-0.6,0.1-0.8
			c0-0.1-0.1-0.2-0.2-0.2l-3.3-0.3l2.5-2.2c0.1-0.1,0.1-0.2,0.1-0.3c0-0.1-0.2-0.3-0.5-0.6c-0.3-0.3-0.5-0.4-0.6-0.4
			c-0.1,0-0.3,0-0.3,0.1l-1.9,2.7l-0.7-3.2c0-0.1-0.1-0.2-0.3-0.2c-0.1,0-0.4,0-0.7,0.2c-0.4,0.1-0.6,0.2-0.7,0.3
			c-0.1,0.1-0.1,0.2-0.1,0.3L32.9,131.4z M29.5,152.4c-0.2,0.4-0.5,0.8-0.7,1.2c-0.3,0.3-0.6,0.6-0.9,0.8c-0.3,0.2-0.7,0.3-1.2,0.3
			c-0.4,0-0.8-0.1-1.1-0.3c-0.3-0.2-0.6-0.4-0.8-0.7c-0.2-0.3-0.4-0.6-0.5-1c-0.1-0.4-0.2-0.8-0.2-1.3c0-0.6,0.1-1.2,0.3-1.6
			c0.2-0.5,0.3-0.9,0.5-1.2c0.2-0.3,0.3-0.6,0.5-0.8c0.1-0.2,0.2-0.4,0.2-0.5c0-0.1,0-0.1,0-0.2s-0.1-0.1-0.2-0.1
			c-0.1,0-0.2-0.1-0.3-0.1c-0.1,0-0.3,0-0.5,0c-0.3,0-0.5,0-0.6,0.1c-0.2,0-0.3,0.1-0.4,0.2c-0.1,0.1-0.2,0.3-0.4,0.5
			c-0.1,0.2-0.3,0.5-0.4,0.9c-0.1,0.4-0.3,0.8-0.4,1.2c-0.1,0.5-0.2,1-0.2,1.5c0,0.8,0.1,1.5,0.3,2.2c0.2,0.7,0.5,1.3,0.9,1.8
			c0.4,0.5,0.9,0.9,1.5,1.2c0.6,0.3,1.3,0.5,2,0.5c0.6,0,1.2-0.1,1.7-0.3c0.5-0.2,0.9-0.5,1.3-0.8c0.4-0.3,0.7-0.7,0.9-1.2
			c0.3-0.4,0.5-0.9,0.7-1.3c0.2-0.5,0.4-0.9,0.7-1.3c0.2-0.4,0.5-0.8,0.7-1.2c0.3-0.3,0.6-0.6,0.9-0.8c0.3-0.2,0.7-0.3,1.2-0.3
			c0.3,0,0.6,0.1,0.9,0.2c0.3,0.1,0.5,0.3,0.7,0.5c0.2,0.2,0.3,0.5,0.5,0.8s0.2,0.7,0.2,1.2c0,0.5-0.1,0.9-0.2,1.3
			c-0.1,0.4-0.3,0.7-0.4,1c-0.2,0.3-0.3,0.5-0.4,0.7c-0.1,0.2-0.2,0.3-0.2,0.4c0,0.1,0,0.1,0.1,0.2c0,0,0.1,0.1,0.2,0.1
			c0.1,0,0.2,0,0.3,0.1c0.1,0,0.3,0,0.4,0c0.2,0,0.3,0,0.4,0c0.1,0,0.2,0,0.3,0c0.1,0,0.1,0,0.2-0.1c0,0,0.1-0.1,0.2-0.2
			c0.1-0.1,0.2-0.2,0.3-0.5c0.1-0.2,0.3-0.5,0.4-0.9c0.1-0.3,0.2-0.7,0.3-1c0.1-0.4,0.1-0.7,0.1-1.1c0-0.7-0.1-1.4-0.2-2
			c-0.2-0.6-0.4-1.1-0.8-1.6c-0.3-0.4-0.8-0.8-1.3-1.1c-0.5-0.3-1.1-0.4-1.8-0.4c-0.7,0-1.2,0.1-1.7,0.3c-0.5,0.2-0.9,0.5-1.3,0.8
			c-0.4,0.3-0.7,0.7-0.9,1.1c-0.3,0.4-0.5,0.9-0.7,1.3C29.9,151.5,29.7,151.9,29.5,152.4 M22.2,161.8c-0.1,0.1-0.1,0.2-0.1,0.3
			c0,0.2,0,0.4,0,0.6c0,0.2,0.1,0.4,0.1,0.6c0,0.1,0.1,0.3,0.1,0.3c0,0.1,0.1,0.1,0.2,0.2c0.1,0,0.1,0.1,0.2,0.1l4,0.9l0.7,6.7
			l-3.8,1.8c-0.1,0-0.1,0.1-0.2,0.1c0,0-0.1,0.1-0.1,0.2c0,0.1,0,0.2,0,0.4c0,0.2,0,0.4,0,0.6c0,0.3,0.1,0.5,0.1,0.6
			c0,0.2,0.1,0.3,0.1,0.3c0.1,0.1,0.2,0.1,0.3,0.1c0.1,0,0.3-0.1,0.4-0.1l14.5-7c0.1,0,0.2-0.1,0.2-0.2c0.1-0.1,0.1-0.2,0.1-0.3
			c0-0.1,0-0.3,0-0.4c0-0.2,0-0.4,0-0.7c0-0.3-0.1-0.5-0.1-0.6c0-0.2-0.1-0.3-0.1-0.4c0-0.1-0.1-0.2-0.2-0.2c-0.1,0-0.1-0.1-0.2-0.1
			l-15.6-3.9c-0.2,0-0.3-0.1-0.5-0.1C22.4,161.7,22.3,161.7,22.2,161.8 M28.5,165.2l8.4,2l0,0l-7.8,3.6L28.5,165.2z M24.7,181.6
			c0,0-0.1,0.1-0.1,0.2c0,0.1,0,0.2,0,0.3c0,0.1,0,0.3,0.1,0.5c0,0.2,0.1,0.4,0.1,0.5c0.1,0.1,0.1,0.2,0.1,0.3
			c0,0.1,0.1,0.1,0.2,0.1c0.1,0,0.1,0,0.2,0l6.6-1.5l1.3,5.5c0,0.1,0,0.1,0.1,0.2c0.1,0,0.1,0.1,0.2,0.1c0.1,0,0.2,0,0.3,0
			c0.1,0,0.2,0,0.4-0.1c0.2,0,0.3-0.1,0.4-0.1c0.1,0,0.2-0.1,0.2-0.1c0.1-0.1,0.1-0.1,0.1-0.2c0-0.1,0-0.1,0-0.2l-1.3-5.5l5.4-1.2
			l1.3,5.8c0,0.1,0,0.1,0.1,0.2c0,0,0.1,0.1,0.2,0.1c0.1,0,0.2,0,0.3,0c0.1,0,0.3,0,0.4-0.1c0.2,0,0.3-0.1,0.4-0.1
			c0.1,0,0.2-0.1,0.3-0.2c0.1-0.1,0.1-0.1,0.1-0.2c0-0.1,0-0.1,0-0.2l-1.6-7.1c0-0.2-0.1-0.4-0.3-0.5c-0.2-0.1-0.4-0.2-0.7-0.1
			l-14.7,3.4C24.8,181.5,24.8,181.5,24.7,181.6 M29.1,196.2c-0.3,0.1-0.5,0.3-0.6,0.5c-0.1,0.2-0.1,0.4,0,0.6l2.7,7.3
			c0,0.1,0.1,0.1,0.1,0.2c0.1,0,0.1,0.1,0.2,0.1c0.1,0,0.2,0,0.3,0s0.2-0.1,0.4-0.1c0.2-0.1,0.3-0.1,0.4-0.2
			c0.1-0.1,0.2-0.1,0.2-0.2c0.1-0.1,0.1-0.1,0.1-0.2c0-0.1,0-0.1,0-0.2l-2.2-6.1l5.5-2l1.9,5.1c0,0.1,0.1,0.1,0.1,0.2
			c0,0,0.1,0.1,0.2,0.1c0.1,0,0.2,0,0.3,0c0.1,0,0.2-0.1,0.4-0.1c0.2-0.1,0.3-0.1,0.4-0.2c0.1-0.1,0.2-0.1,0.2-0.2
			c0.1-0.1,0.1-0.1,0.1-0.2c0-0.1,0-0.1,0-0.2l-1.9-5.1l4.8-1.7l2.2,6c0,0.1,0.1,0.1,0.1,0.2c0.1,0,0.1,0.1,0.2,0.1
			c0.1,0,0.2,0,0.3,0c0.1,0,0.2-0.1,0.4-0.1c0.2-0.1,0.3-0.1,0.4-0.2c0.1-0.1,0.2-0.1,0.2-0.2c0.1-0.1,0.1-0.1,0.1-0.2
			c0-0.1,0-0.1,0-0.2l-2.6-7.3c-0.1-0.2-0.2-0.3-0.4-0.4c-0.2-0.1-0.4-0.1-0.7,0L29.1,196.2z M35.7,214.5c0,0.1,0,0.1,0,0.2
			c0,0.1,0,0.2,0.1,0.3c0,0.1,0.1,0.3,0.2,0.5c0.1,0.2,0.2,0.3,0.3,0.5c0.1,0.1,0.2,0.2,0.2,0.3c0.1,0.1,0.1,0.1,0.2,0.1
			c0.1,0,0.1,0,0.2,0l12.6-6.4l2.1,4.1c0,0.1,0.1,0.1,0.1,0.1c0.1,0,0.1,0.1,0.2,0.1c0.1,0,0.2,0,0.3-0.1c0.1,0,0.2-0.1,0.4-0.2
			c0.1-0.1,0.3-0.1,0.4-0.2c0.1-0.1,0.2-0.1,0.2-0.2c0-0.1,0.1-0.1,0.1-0.2c0-0.1,0-0.1,0-0.2L48,203.1c0-0.1-0.1-0.1-0.1-0.1
			c-0.1,0-0.1,0-0.2,0c-0.1,0-0.2,0-0.3,0.1c-0.1,0-0.2,0.1-0.4,0.2c-0.1,0.1-0.3,0.1-0.4,0.2c-0.1,0.1-0.2,0.1-0.2,0.2
			c0,0.1-0.1,0.1-0.1,0.2c0,0.1,0,0.1,0,0.2l2.1,4.1l-12.6,6.4C35.8,214.4,35.8,214.5,35.7,214.5 M44.2,229.1
			c-0.1,0-0.1,0.1-0.1,0.1c0,0.1,0,0.1,0,0.2c0,0.1,0.1,0.2,0.1,0.3c0.1,0.1,0.1,0.3,0.3,0.4c0.1,0.2,0.2,0.3,0.3,0.4
			c0.1,0.1,0.2,0.2,0.2,0.2c0.1,0.1,0.1,0.1,0.2,0.1c0.1,0,0.1,0,0.2-0.1l5-3.3l10.2-1.3c0.2,0,0.4-0.1,0.5-0.1
			c0.1,0,0.2-0.1,0.2-0.2c0-0.1,0-0.2-0.1-0.4c-0.1-0.2-0.2-0.4-0.4-0.6c-0.1-0.2-0.2-0.3-0.3-0.4c-0.1-0.1-0.2-0.2-0.2-0.2
			c-0.1-0.1-0.1-0.1-0.2-0.1c-0.1,0-0.2,0-0.2,0l-5.2,0.7c-0.5,0.1-1,0.2-1.5,0.3c-0.5,0.1-1,0.2-1.5,0.3l0,0
			c0.3-0.5,0.6-0.9,0.9-1.3c0.3-0.4,0.6-0.9,0.8-1.3l2.6-4.5c0-0.1,0.1-0.2,0.1-0.2c0-0.1,0-0.2,0-0.2c0-0.1-0.1-0.2-0.1-0.3
			c-0.1-0.1-0.2-0.3-0.3-0.5c-0.2-0.2-0.3-0.4-0.4-0.5c-0.1-0.1-0.2-0.2-0.3-0.2c-0.1,0-0.2,0-0.2,0.1c-0.1,0.1-0.2,0.2-0.3,0.4
			l-5.1,8.9L44.2,229.1z M71.4,259.5c0,0-0.1,0.1-0.1,0.2c0,0.1,0,0.1,0.1,0.2c0,0.1,0.1,0.2,0.2,0.2c0.1,0.1,0.2,0.2,0.4,0.3
			c0.2,0.1,0.3,0.2,0.4,0.3c0.1,0.1,0.2,0.1,0.3,0.1c0.1,0,0.2,0,0.2,0c0.1,0,0.1-0.1,0.1-0.1l5.7-8c0.4-0.5,0.7-1,1.1-1.5
			c0.4-0.5,0.7-1,1-1.5l0,0c-0.1,0.5-0.2,1.1-0.3,1.7c-0.1,0.6-0.2,1.1-0.2,1.7l-1.4,10.4c-0.1,0.4-0.1,0.7-0.1,0.9
			c0,0.3,0,0.5,0.1,0.7c0.1,0.2,0.1,0.3,0.2,0.5c0.1,0.1,0.3,0.3,0.4,0.4l0.6,0.4c0.1,0.1,0.2,0.1,0.3,0.2c0.1,0,0.2,0.1,0.3,0
			c0.1,0,0.2,0,0.3-0.1c0.1-0.1,0.2-0.2,0.3-0.3l8.8-12.2c0,0,0.1-0.1,0.1-0.2c0-0.1,0-0.1-0.1-0.2c0-0.1-0.1-0.2-0.2-0.3
			c-0.1-0.1-0.2-0.2-0.4-0.3c-0.2-0.1-0.3-0.2-0.4-0.3c-0.1-0.1-0.2-0.1-0.3-0.1c-0.1,0-0.2,0-0.2,0c-0.1,0-0.1,0.1-0.1,0.1
			l-5.2,7.2c-0.4,0.5-0.8,1.1-1.2,1.7c-0.4,0.6-0.8,1.1-1.2,1.7l0,0c0.1-0.4,0.1-0.9,0.2-1.3c0.1-0.4,0.1-0.9,0.2-1.3
			c0.1-0.4,0.1-0.9,0.2-1.4c0.1-0.5,0.1-0.9,0.2-1.4l1.1-8c0-0.3,0.1-0.5,0.1-0.8c0-0.2,0-0.4-0.1-0.6c-0.1-0.2-0.1-0.3-0.2-0.4
			c-0.1-0.1-0.3-0.3-0.5-0.4l-0.9-0.6c-0.2-0.1-0.4-0.2-0.6-0.2c-0.2,0-0.5,0.1-0.7,0.4L71.4,259.5z M88,270.3
			c-0.2,0.3-0.2,0.5-0.1,0.7c0.1,0.2,0.2,0.3,0.4,0.4l3.1,1.6c1.2,0.6,2.4,1,3.4,1.2c1.1,0.2,2,0.1,3-0.2c0.9-0.3,1.8-0.8,2.6-1.6
			c0.8-0.8,1.5-1.8,2.2-3c0.6-1.1,0.9-2.1,1.1-3.2c0.1-1,0.1-2-0.2-2.9c-0.3-0.9-0.8-1.7-1.5-2.5c-0.7-0.8-1.7-1.5-2.9-2.1l-3.3-1.7
			c-0.2-0.1-0.4-0.1-0.6-0.1c-0.2,0-0.4,0.2-0.5,0.5L88,270.3z M90.3,270.5l5.8-11.3l2,1c1,0.5,1.7,1.1,2.2,1.7c0.5,0.6,0.8,1.3,1,2
			c0.2,0.7,0.2,1.4,0,2.2c-0.2,0.8-0.4,1.6-0.8,2.3c-0.5,1-1.1,1.8-1.6,2.4c-0.6,0.6-1.2,1-1.9,1.3c-0.7,0.3-1.4,0.3-2.1,0.2
			c-0.8-0.1-1.6-0.4-2.5-0.9L90.3,270.5z M94.1,204.8h9.9c1.8,0,2.7-1.4,2.7-2.7c0-1.4-0.9-2.7-2.7-2.7h-9.9v-11h14.6
			c1.8,0,2.7-1.4,2.7-2.7c0-1.4-0.9-2.7-2.7-2.7H91.4c-1.4,0-2.7,1.3-2.7,2.7v34.2c0,1.8,1.4,2.7,2.7,2.7c1.4,0,2.7-0.9,2.7-2.7
			V204.8z M113.8,282.3c0,0.1,0,0.1,0,0.2c0,0.1,0.1,0.1,0.1,0.2c0.1,0.1,0.2,0.1,0.3,0.2c0.1,0.1,0.3,0.1,0.5,0.2
			c0.2,0.1,0.4,0.1,0.5,0.1c0.1,0,0.3,0,0.3,0c0.1,0,0.2,0,0.2-0.1c0,0,0.1-0.1,0.1-0.2l4.7-14.9c0-0.1,0-0.1,0-0.2
			c0-0.1-0.1-0.1-0.1-0.2c-0.1-0.1-0.2-0.1-0.3-0.2c-0.1-0.1-0.3-0.1-0.5-0.2c-0.2-0.1-0.3-0.1-0.5-0.1c-0.1,0-0.3,0-0.3,0
			c-0.1,0-0.2,0-0.2,0.1c-0.1,0-0.1,0.1-0.1,0.2L113.8,282.3z M121.2,219.9v-15.1h9.9c1.8,0,2.7-1.4,2.7-2.7c0-1.4-0.9-2.7-2.7-2.7
			h-9.9v-11h14.6c1.8,0,2.7-1.4,2.7-2.7c0-1.4-0.9-2.7-2.7-2.7h-17.3c-1.4,0-2.7,1.3-2.7,2.7v34.2c0,1.8,1.4,2.7,2.7,2.7
			C119.8,222.7,121.2,221.8,121.2,219.9 M125.7,270.4l-2.6,14.8c0,0.1,0,0.1,0,0.2c0,0.1,0.1,0.1,0.1,0.2c0.1,0,0.2,0.1,0.3,0.1
			c0.1,0,0.3,0.1,0.5,0.1c0.2,0,0.4,0.1,0.5,0.1c0.1,0,0.3,0,0.3,0c0.1,0,0.2,0,0.2-0.1c0,0,0.1-0.1,0.1-0.2l1.7-9.7
			c0.1-0.6,0.2-1.2,0.3-1.8c0.1-0.6,0.2-1.2,0.3-1.8l0,0c0.1,0.5,0.3,1.1,0.5,1.6c0.2,0.6,0.3,1.1,0.5,1.6l3.3,10
			c0.1,0.4,0.2,0.6,0.3,0.9c0.1,0.2,0.2,0.4,0.4,0.6c0.1,0.1,0.3,0.3,0.4,0.3c0.2,0.1,0.3,0.1,0.6,0.2l0.7,0.1c0.1,0,0.2,0,0.3,0
			c0.1,0,0.2,0,0.3-0.1c0.1-0.1,0.2-0.1,0.3-0.2c0.1-0.1,0.1-0.2,0.2-0.4l2.6-14.8c0-0.1,0-0.1,0-0.2c0-0.1-0.1-0.1-0.1-0.2
			c-0.1-0.1-0.2-0.1-0.3-0.1c-0.1,0-0.3-0.1-0.5-0.1c-0.2,0-0.4-0.1-0.5-0.1c-0.1,0-0.2,0-0.3,0c-0.1,0-0.2,0.1-0.2,0.1
			c0,0-0.1,0.1-0.1,0.2l-1.6,8.7c-0.1,0.7-0.2,1.3-0.4,2c-0.1,0.7-0.2,1.4-0.3,2l0,0c-0.1-0.4-0.2-0.8-0.4-1.3
			c-0.1-0.4-0.3-0.8-0.4-1.3c-0.1-0.4-0.3-0.9-0.4-1.3c-0.1-0.4-0.3-0.9-0.4-1.4l-2.5-7.7c-0.1-0.3-0.2-0.5-0.3-0.7
			c-0.1-0.2-0.2-0.3-0.3-0.5c-0.1-0.1-0.3-0.2-0.4-0.3c-0.2-0.1-0.4-0.1-0.6-0.2l-1-0.2c-0.2,0-0.4,0-0.7,0.1
			C125.9,269.8,125.7,270,125.7,270.4 M137,213.4c0,5.2,4.2,9.2,9.4,9.2h0.5c5.2,0,9.4-4,9.4-9.2v-9.7c0-5.2-4.3-9.2-9.4-9.2h-0.5
			c-5.2,0-9.4,4-9.4,9.2V213.4z M142.5,203.8c0-2.2,1.8-3.8,4-3.8h0.5c2.2,0,4,1.6,4,3.8v9.7c0,2.2-1.8,3.8-4,3.8h-0.5
			c-2.2,0-4-1.6-4-3.8V203.8z M143,273.4l-0.4,15c0,0.1,0,0.1,0,0.2c0,0.1,0.1,0.1,0.2,0.1c0.1,0,0.2,0.1,0.3,0.1c0.1,0,0.3,0,0.5,0
			c0.2,0,0.4,0,0.5,0c0.1,0,0.2,0,0.3-0.1c0.1,0,0.1-0.1,0.2-0.1c0-0.1,0.1-0.1,0.1-0.2l0.2-9.8c0-0.6,0-1.2,0-1.9
			c0-0.6,0-1.2,0-1.9l0,0c0.2,0.5,0.4,1,0.7,1.5c0.2,0.5,0.5,1,0.7,1.5l4.7,9.4c0.2,0.3,0.3,0.6,0.5,0.8c0.1,0.2,0.3,0.4,0.4,0.5
			c0.1,0.1,0.3,0.2,0.5,0.3c0.2,0.1,0.4,0.1,0.6,0.1l0.7,0c0.1,0,0.2,0,0.3,0c0.1,0,0.2-0.1,0.3-0.2c0.1-0.1,0.2-0.2,0.2-0.3
			c0.1-0.1,0.1-0.3,0.1-0.4l0.4-15c0-0.1,0-0.1,0-0.2c0-0.1-0.1-0.1-0.2-0.1c-0.1,0-0.2-0.1-0.3-0.1c-0.1,0-0.3,0-0.5,0
			c-0.2,0-0.4,0-0.5,0c-0.1,0-0.2,0-0.3,0.1c-0.1,0-0.1,0.1-0.2,0.1c0,0-0.1,0.1-0.1,0.2l-0.2,8.8c0,0.7,0,1.4,0,2.1
			c0,0.7,0,1.4,0,2.1h0c-0.2-0.4-0.4-0.8-0.6-1.2c-0.2-0.4-0.4-0.8-0.6-1.2c-0.2-0.4-0.4-0.8-0.6-1.2c-0.2-0.4-0.4-0.9-0.7-1.3
			l-3.6-7.2c-0.1-0.3-0.3-0.5-0.4-0.7c-0.1-0.2-0.2-0.3-0.4-0.4c-0.1-0.1-0.3-0.2-0.4-0.2c-0.2,0-0.4-0.1-0.6-0.1l-1.1,0
			c-0.2,0-0.4,0.1-0.6,0.2C143.1,272.8,143,273.1,143,273.4 M160.7,277.7c-0.2,1.1-0.2,2.3,0,3.5c0.2,1.3,0.5,2.5,0.9,3.5
			c0.4,1,1,1.8,1.6,2.4c0.7,0.6,1.5,1.1,2.4,1.3c0.9,0.2,2,0.3,3.2,0.1c1.2-0.2,2.3-0.5,3.2-1c0.9-0.5,1.6-1.2,2.1-2
			c0.5-0.8,0.9-1.8,1-2.9c0.2-1.1,0.2-2.3,0-3.6c-0.2-1.3-0.5-2.4-0.9-3.4c-0.4-1-1-1.8-1.6-2.4c-0.7-0.6-1.5-1-2.4-1.3
			c-0.9-0.2-2-0.3-3.2-0.1c-1.2,0.2-2.3,0.5-3.2,1c-0.9,0.5-1.6,1.2-2.1,2C161.2,275.6,160.8,276.6,160.7,277.7 M162.8,278.3
			c0.1-0.8,0.3-1.5,0.6-2.1c0.3-0.6,0.8-1.2,1.4-1.6c0.6-0.4,1.3-0.7,2.3-0.8c0.9-0.1,1.7-0.1,2.4,0.2c0.7,0.2,1.2,0.6,1.7,1.2
			c0.5,0.5,0.8,1.2,1.1,1.9c0.3,0.8,0.4,1.6,0.6,2.5c0.1,0.9,0.1,1.7,0.1,2.5c-0.1,0.8-0.3,1.5-0.6,2.2c-0.3,0.6-0.8,1.2-1.4,1.6
			c-0.6,0.4-1.4,0.7-2.3,0.8c-0.9,0.1-1.8,0.1-2.4-0.2c-0.7-0.2-1.2-0.6-1.7-1.2c-0.4-0.5-0.8-1.2-1.1-2c-0.3-0.8-0.4-1.6-0.6-2.6
			C162.8,279.9,162.8,279.1,162.8,278.3 M176.3,270.9c-0.1,0.1-0.1,0.2,0,0.3c0,0.1,0.1,0.2,0.2,0.4l8.9,13.3c0,0.1,0.1,0.1,0.1,0.1
			c0,0,0.1,0.1,0.1,0.1c0.1,0,0.1,0,0.2,0c0.1,0,0.2,0,0.3,0c0.1,0,0.2,0,0.4-0.1c0.1,0,0.3-0.1,0.5-0.1c0.2-0.1,0.4-0.1,0.6-0.2
			c0.2-0.1,0.3-0.1,0.4-0.2c0.1-0.1,0.2-0.1,0.2-0.2c0-0.1,0.1-0.2,0.1-0.3l1.4-16c0-0.2,0-0.3,0-0.5c0-0.1-0.1-0.2-0.1-0.2
			c-0.1,0-0.2-0.1-0.3,0c-0.2,0-0.4,0.1-0.6,0.1c-0.2,0.1-0.4,0.1-0.6,0.2c-0.1,0.1-0.3,0.1-0.3,0.2c-0.1,0.1-0.1,0.1-0.1,0.2
			c0,0.1,0,0.1,0,0.2l-1,14.4l0,0l-7.9-12.1c-0.1-0.1-0.1-0.1-0.2-0.2c0,0-0.1-0.1-0.2-0.1c-0.1,0-0.2,0-0.3,0
			c-0.1,0-0.3,0.1-0.5,0.1c-0.3,0.1-0.5,0.1-0.7,0.2C176.5,270.8,176.4,270.9,176.3,270.9 M184.8,218l-0.6-0.7
			c1-1.6,1.6-3.6,1.6-5.7v-17.8c0-6.1-4.9-11.1-11.1-11.1h-0.6c-6.1,0-11.1,4.9-11.1,11.1v17.8c0,6.1,5,11.1,11.1,11.1h0.6
			c2,0,3.9-0.6,5.6-1.5l0.6,0.6c0.6,0.6,1.3,0.9,1.9,0.9c1.5,0,2.8-1.3,2.8-2.8C185.6,219.2,185.4,218.6,184.8,218 M180.3,211.6
			c0,0.5-0.1,1.1-0.2,1.6l-0.6-0.6c-0.6-0.6-1.3-0.9-1.9-0.9c-1.5,0-2.8,1.4-2.8,2.8c0,0.6,0.2,1.3,0.9,1.9l0.6,0.6
			c-0.5,0.1-0.9,0.2-1.4,0.2h-0.6c-3.1,0-5.6-2.6-5.6-5.6v-17.9c0-3.1,2.6-5.6,5.6-5.6h0.6c3.1,0,5.6,2.5,5.6,5.6V211.6z
			 M168.9,175.2c0,0,5-3.9,21.4-5.9c8.8-1.1,14.8-4.9,18.2-7.9c1.7-1.6,3-3.1,3.9-4.2c1-1.3,1.5-2.1,2.6-4c0.3-0.6,0.7-1.2,1.1-2
			c1.7-3,2.9-7.4,1.4-10.8c-1-2.3-3.2-3.9-6.4-4.6c-7.7-1.8-12.3-2.9-17.4-4.5c-1-0.3-2-0.6-3-0.9c1.7-0.4,3-1.1,4.4-2.3
			c3.1-2.8,3.9-8,3.9-8.2c0-0.1-0.1-0.2-0.2-0.3c-0.1,0-0.3,0-0.3,0.1l-0.9,1.6c-1.5,2.6-3.1,4.4-4.8,5.4c-1,0.5-1.9,0.9-2.6,1.1
			c0.8-1.3,1.1-3.2,0.9-5.2c-0.5-3.6-2.8-6.2-5.1-5.9c-0.3,0-0.7,0.2-1,0.3c0.8,0.4,1.2,1.3,0.9,2.2c-0.3,1-1.4,1.6-2.4,1.3
			c-0.3-0.1-0.5-0.2-0.7-0.4c-0.3,1.1-0.4,2.3-0.2,3.6c0.2,1.2,0.6,2.4,1.1,3.3c-1.2-1-2.5-2.5-3.3-4.7c-0.6-1.5-0.4-3.2,0.5-4.9
			c1.5-2.7,4.5-4.8,8-5.5c3.9-0.8,8.4,0.6,11.1,1.7c0-0.2,0.1-0.4,0-0.5c0-0.1-0.1-0.2-0.2-0.2c-0.6-0.3-7.7-4.1-13.4-2.8
			c-3.4,0.8-6.4,3-7.9,5.7c-0.5,0.9-0.8,1.8-0.9,2.6l-0.1,0c0,0-0.3,1.5,0,3c0.1,0.6,0.2,1.1,0.4,1.7c0,0.1,0.1,0.2,0.1,0.4
			c0,0.1,0.1,0.2,0.1,0.3c0,0.1,0.1,0.1,0.1,0.2c0.2,0.5,0.4,0.9,0.7,1.3c0,0.1,0.1,0.1,0.2,0.1c0.3,0.4,0.6,0.8,1.1,1.3
			c1.9,2,6,4.8,14.2,7.1c1.3,0.4,2.6,0.7,3.9,1.1c2.5,0.7,4.8,1.3,6.9,2c-4.3,2.2-9.1,7.6-8.6,11.6c0.6,4.8,9.1,5.5,13.8,4.9
			c0.1,0,0.1,0,0.1,0c-2.2,3.6-5.8,6.9-12.8,8c-11.9,1.9-20.8,1.7-34.2-4.9c-12.8-6.2-26.8-4.4-26.9-4.4c-0.1,0-0.2,0.1-0.2,0.2
			c0,0.1,0.1,0.2,0.2,0.2c0,0,2.9,0.2,4.9,0.4c2,0.1,4.1,0.4,4.1,0.5c7.1,0.8,13.3,3.6,19.7,6.6l1.2,0.5c6.3,2.9,13.7,4.5,21.3,4.5
			c0.2,0,0.4,0,0.6,0c4.6,0,10.4-1.1,13.7-1.7c-0.6,0.5-1.3,0.9-1.8,1.2c-3,1.5-6.6,2.2-11.9,3.2c-1.9,0.4-4,0.8-6.3,1.3
			c-8.9,1.9-13.1,6-13.2,6c-0.1,0.1-0.1,0.2,0,0.3c0,0,0.1,0.1,0.2,0.1C168.8,175.2,168.8,175.2,168.9,175.2 M190.6,211.6
			c0,6.9,5.1,11.1,11.1,11.1h0.6c6.4,0,11.3-4.2,11.3-10.6c0-11.8-17.2-13-17.2-18.5v-1.1c0-2.8,2.9-4.4,5.3-4.4h0.5
			c3,0,4.7,0.6,5.3,3.7c0.3,1.5,1.2,2.5,2.8,2.5c1.5,0,2.6-1,2.6-2.6c0-0.1,0-0.2,0-0.3c-0.4-5.8-5.3-8.7-10.7-8.7h-0.5
			c-5.2,0-10.8,3.9-10.8,10.1v1c0,10.3,17.2,10.3,17.2,18.3c0,3.3-2.6,5.2-5.9,5.2h-0.6c-3.2,0-5.6-2.1-5.6-5.7
			c0-1.8-1.4-2.7-2.7-2.7C192,208.8,190.6,209.8,190.6,211.6 M195.7,265.4c0,0.1,0,0.2,0,0.3l0.8,16.1c0,0.2,0,0.3,0.1,0.5
			c0,0.1,0.1,0.2,0.2,0.2c0.1,0,0.2,0,0.3,0c0.1,0,0.3-0.1,0.6-0.2c0.2-0.1,0.4-0.2,0.5-0.2c0.1-0.1,0.2-0.1,0.3-0.2
			c0.1-0.1,0.1-0.1,0.1-0.2c0-0.1,0-0.1,0-0.2l-0.3-4.1l6.2-2.6l2.8,3.1c0.1,0.1,0.1,0.1,0.2,0.1c0.1,0,0.1,0,0.2,0
			c0.1,0,0.2,0,0.3-0.1c0.1,0,0.3-0.1,0.6-0.2c0.2-0.1,0.4-0.2,0.6-0.3c0.1-0.1,0.2-0.2,0.3-0.2c0-0.1,0-0.2,0-0.3
			c0-0.1-0.1-0.2-0.3-0.4l-10.9-11.8c-0.1-0.1-0.1-0.1-0.2-0.2c-0.1,0-0.2,0-0.3,0c-0.1,0-0.3,0-0.4,0.1c-0.2,0.1-0.4,0.1-0.6,0.2
			c-0.2,0.1-0.4,0.2-0.6,0.3c-0.1,0.1-0.3,0.1-0.3,0.2C195.8,265.2,195.7,265.3,195.7,265.4 M197.6,266.8L197.6,266.8l5.8,6.4
			l-5.2,2.2L197.6,266.8z M209.2,261.1l7,12.3c0,0.1,0.1,0.1,0.1,0.1c0.1,0,0.1,0,0.2,0c0.1,0,0.2,0,0.3-0.1
			c0.1-0.1,0.3-0.1,0.5-0.2c0.2-0.1,0.3-0.2,0.4-0.3c0.1-0.1,0.2-0.2,0.3-0.2c0.1-0.1,0.1-0.1,0.1-0.2c0-0.1,0-0.1,0-0.2l-7-12.3
			l4-2.3c0.1,0,0.1-0.1,0.1-0.1c0-0.1,0-0.1,0-0.2c0-0.1,0-0.2-0.1-0.3c0-0.1-0.1-0.2-0.2-0.4c-0.1-0.1-0.2-0.3-0.2-0.4
			c-0.1-0.1-0.1-0.2-0.2-0.2c-0.1,0-0.1-0.1-0.2-0.1c-0.1,0-0.1,0-0.2,0l-9.8,5.6c-0.1,0-0.1,0.1-0.1,0.1c0,0.1,0,0.1,0,0.2
			c0,0.1,0,0.2,0.1,0.3c0,0.1,0.1,0.2,0.2,0.4c0.1,0.1,0.2,0.3,0.2,0.3c0.1,0.1,0.1,0.2,0.2,0.2c0.1,0,0.1,0.1,0.2,0.1
			c0.1,0,0.1,0,0.2,0L209.2,261.1z M221.4,222.7c1.4,0,2.7-0.9,2.7-2.7v-34.5c0-1.8-1.4-2.7-2.7-2.7c-1.4,0-2.7,0.9-2.7,2.7v34.5
			C218.6,221.8,220,222.7,221.4,222.7 M218.4,253.6c-0.1,0.1-0.1,0.1-0.1,0.2c0,0.1,0,0.1,0.1,0.2l9,12.8c0,0.1,0.1,0.1,0.1,0.1
			c0.1,0,0.1,0,0.2,0c0.1,0,0.2-0.1,0.3-0.1c0.1-0.1,0.3-0.2,0.4-0.3c0.2-0.1,0.3-0.2,0.4-0.3c0.1-0.1,0.2-0.2,0.2-0.3
			c0.1-0.1,0.1-0.1,0.1-0.2c0-0.1,0-0.1-0.1-0.2l-9-12.8c0-0.1-0.1-0.1-0.1-0.1c-0.1,0-0.1,0-0.2,0c-0.1,0-0.2,0.1-0.3,0.1
			c-0.1,0.1-0.3,0.2-0.4,0.3c-0.2,0.1-0.3,0.2-0.4,0.3C218.5,253.4,218.4,253.5,218.4,253.6 M227.5,253.1c0.4,1,1.1,2,1.9,3
			c0.9,1,1.7,1.8,2.6,2.4c0.9,0.6,1.8,1,2.7,1.1c0.9,0.1,1.8,0.1,2.7-0.2c0.9-0.3,1.8-0.9,2.8-1.6c0.9-0.8,1.6-1.7,2.1-2.6
			c0.4-0.9,0.7-1.8,0.7-2.8c0-1-0.2-1.9-0.7-3c-0.5-1-1.1-2-2-3c-0.9-1-1.7-1.8-2.6-2.4c-0.9-0.6-1.8-1-2.7-1.1
			c-0.9-0.1-1.8-0.1-2.7,0.2c-0.9,0.3-1.8,0.8-2.7,1.6c-0.9,0.8-1.6,1.7-2.1,2.6c-0.4,0.9-0.7,1.8-0.7,2.8
			C226.8,251.1,227,252.1,227.5,253.1 M228.9,250.3c-0.1-0.7,0-1.4,0.3-2.1c0.3-0.7,0.7-1.3,1.5-1.9c0.7-0.6,1.4-1,2.1-1.2
			c0.7-0.2,1.4-0.2,2,0c0.7,0.2,1.3,0.5,2,1c0.6,0.5,1.3,1.1,1.9,1.8c0.6,0.7,1.1,1.4,1.4,2.1c0.4,0.7,0.6,1.4,0.7,2.1
			c0.1,0.7,0,1.4-0.3,2.1c-0.3,0.7-0.8,1.3-1.5,2c-0.7,0.6-1.4,1-2.1,1.2c-0.7,0.2-1.4,0.2-2,0c-0.7-0.2-1.3-0.6-2-1.1
			c-0.6-0.5-1.3-1.1-1.9-1.9c-0.6-0.7-1-1.3-1.4-2C229.3,251.7,229,251,228.9,250.3 M238.9,237.7l11.3,9.9c0,0,0.1,0.1,0.2,0.1
			c0.1,0,0.1,0,0.2,0c0.1,0,0.2-0.1,0.3-0.2c0.1-0.1,0.2-0.2,0.4-0.4c0.1-0.2,0.2-0.3,0.3-0.4c0.1-0.1,0.1-0.2,0.2-0.3
			c0-0.1,0-0.2,0-0.2c0-0.1,0-0.1-0.1-0.2l-7.4-6.5c-0.5-0.4-0.9-0.8-1.4-1.2c-0.5-0.4-0.9-0.8-1.4-1.2l0,0c0.5,0.2,1.1,0.3,1.6,0.5
			c0.6,0.1,1.1,0.3,1.6,0.4l10.2,2.4c0.4,0.1,0.7,0.1,0.9,0.2c0.3,0,0.5,0,0.7,0c0.2,0,0.4-0.1,0.5-0.2c0.1-0.1,0.3-0.2,0.4-0.4
			l0.5-0.5c0.1-0.1,0.1-0.2,0.2-0.3c0-0.1,0.1-0.2,0.1-0.3c0-0.1,0-0.2-0.1-0.4c-0.1-0.1-0.1-0.2-0.3-0.3l-11.3-9.9
			c0,0-0.1-0.1-0.2-0.1c-0.1,0-0.1,0-0.2,0c-0.1,0-0.2,0.1-0.3,0.2c-0.1,0.1-0.2,0.2-0.4,0.4c-0.1,0.2-0.3,0.3-0.3,0.4
			c-0.1,0.1-0.1,0.2-0.2,0.3c0,0.1,0,0.2,0,0.2c0,0.1,0,0.1,0.1,0.1l6.6,5.8c0.5,0.4,1,0.9,1.6,1.4c0.5,0.5,1.1,0.9,1.6,1.3l0,0
			c-0.4-0.1-0.8-0.2-1.3-0.3c-0.4-0.1-0.9-0.2-1.3-0.3c-0.4-0.1-0.9-0.2-1.3-0.3c-0.5-0.1-0.9-0.2-1.4-0.3l-7.9-1.8
			c-0.3-0.1-0.5-0.1-0.7-0.1c-0.2,0-0.4,0-0.6,0c-0.2,0-0.3,0.1-0.5,0.2c-0.1,0.1-0.3,0.2-0.5,0.4l-0.7,0.8
			c-0.1,0.2-0.2,0.4-0.2,0.6C238.5,237.3,238.6,237.5,238.9,237.7"/>
	</g>
	<g>
		<path class="foxycolor" d="M345.9,171.6c-0.7-2.4-7.2-7.6-7.8-8.1c0,0-1.9-8.6-3.1-10.5c0,0-0.2-0.3-0.2-0.3c-1.4-1.7-10.3-4.3-10.3-4.3
			s-5.3-7.1-7.2-8.4c0,0-0.3-0.2-0.3-0.2c-2.1-1-11.1,0.3-11.1,0.3s-7.9-4.6-10.1-4.8l-0.3,0c-2.4,0.1-10,4.8-10,4.8
			s-9.1-1-11.3-0.2h0l0,0c0,0,0,0,0,0c-2.1,0.8-7.3,8.6-7.3,8.6s-8.6,2.7-10.3,4.3c0,0-0.2,0.2-0.2,0.2c-1.4,1.7-3.2,10.8-3.2,10.8
			s-7.1,6.3-7.9,8.3c-0.9,2.4,1.4,11.6,1.4,11.6l0,0c0,0-3.9,8-3.7,10.7c0.1,2.5,5.5,9.1,6,9.6c0,0-0.4,9.2,0.8,11.6
			c1.2,2.3,9.6,6.5,9.6,6.5s3.3,8.2,5.3,9.9c2,1.6,11.2,2.1,11.2,2.1s6.2,5.9,8.8,6.6c2.2,0.6,10.9-2.7,10.9-2.7s9.1,2.9,11.2,2.6
			c2.6-0.4,9.1-6.9,9.1-6.9s8.9-0.6,11.1-2.1c2.1-1.4,5.2-9.6,5.4-10c0.5-0.2,7.8-4.2,9.2-6.4c1.2-1.9,0.8-11.3,0.8-11.3
			s5.6-7.5,5.9-9.7c0.4-2.6-3.8-10.8-3.8-10.8S346.6,174.1,345.9,171.6"/>
	</g>
	<g>
		<path class="foxwhite" d="M340.1,188.3c0-0.2,0-0.5-0.1-0.7c-0.1-0.2-0.2-0.4-0.5-0.6c-0.2-0.2-0.5-0.3-0.8-0.5
			c-0.3-0.1-0.7-0.2-1.2-0.2c-0.5,0-1,0.1-1.5,0.3c-0.4,0.2-0.8,0.4-1.2,0.7c-0.3,0.3-0.6,0.6-0.9,1c-0.2,0.4-0.4,0.8-0.6,1.2
			c-0.2,0.4-0.3,0.8-0.3,1.2c-0.1,0.4-0.1,0.8-0.1,1.2c0,0.5,0.1,0.9,0.2,1.2c0.1,0.3,0.3,0.6,0.6,0.9c0.2,0.2,0.6,0.4,0.9,0.5
			c0.4,0.1,0.8,0.2,1.3,0.2c0.3,0,0.6,0,0.8,0c0.3,0,0.5-0.1,0.8-0.1c0.2-0.1,0.4-0.1,0.6-0.2c0.2-0.1,0.3-0.1,0.4-0.2
			c0-0.1,0.1-0.1,0.1-0.2c0-0.1,0.1-0.1,0.1-0.2c0-0.1,0-0.2,0.1-0.2c0-0.1,0-0.1,0-0.2c0-0.1,0-0.1,0-0.2c0,0-0.1-0.1-0.1-0.1
			s-0.1,0-0.3,0.1c-0.1,0.1-0.3,0.1-0.5,0.2c-0.2,0.1-0.5,0.1-0.7,0.2c-0.3,0.1-0.6,0.1-1,0.1c-0.6,0-1.1-0.1-1.4-0.4
			c-0.3-0.3-0.4-0.7-0.4-1.3c0-0.2,0-0.3,0-0.5c0-0.2,0-0.4,0.1-0.5h0.9c0.8,0,1.5-0.1,2.1-0.2c0.6-0.1,1.1-0.3,1.5-0.5
			c0.4-0.2,0.7-0.5,0.8-0.8C340,189.1,340.1,188.7,340.1,188.3 M338.6,188.5c0,0.2,0,0.4-0.1,0.5c-0.1,0.2-0.3,0.3-0.5,0.4
			c-0.2,0.1-0.6,0.2-1,0.3c-0.4,0.1-0.9,0.1-1.5,0.1h-0.9c0.1-0.3,0.2-0.6,0.4-0.9c0.2-0.3,0.3-0.5,0.6-0.7c0.2-0.2,0.5-0.4,0.7-0.5
			c0.3-0.1,0.6-0.2,1-0.2c0.4,0,0.7,0.1,1,0.3C338.5,187.9,338.6,188.2,338.6,188.5 M331.8,187.8c0-0.1,0-0.2,0-0.3
			c0-0.1,0-0.1,0-0.2c0-0.1-0.1-0.1-0.2-0.2c-0.1-0.1-0.2-0.2-0.3-0.2c-0.1-0.1-0.3-0.2-0.5-0.2c-0.2-0.1-0.4-0.1-0.6-0.1
			s-0.4-0.1-0.6-0.1c-0.5,0-1,0.1-1.4,0.3c-0.4,0.2-0.8,0.4-1.1,0.7c-0.3,0.3-0.6,0.6-0.8,1c-0.2,0.4-0.4,0.8-0.5,1.2
			c-0.1,0.4-0.2,0.8-0.3,1.2c-0.1,0.4-0.1,0.8-0.1,1.1c0,0.9,0.2,1.6,0.7,2.1c0.4,0.5,1.1,0.7,2,0.7c0.3,0,0.5,0,0.8-0.1
			c0.3-0.1,0.5-0.1,0.7-0.2c0.2-0.1,0.4-0.2,0.6-0.3c0.2-0.1,0.3-0.2,0.4-0.3c0.1-0.1,0.1-0.1,0.2-0.2c0-0.1,0.1-0.2,0.1-0.3
			c0-0.1,0-0.2,0.1-0.3c0-0.1,0-0.2,0-0.2c0-0.1,0-0.1,0-0.2c0,0-0.1-0.1-0.1-0.1c-0.1,0-0.2,0-0.3,0.1c-0.1,0.1-0.3,0.2-0.5,0.3
			c-0.2,0.1-0.4,0.2-0.7,0.3c-0.3,0.1-0.6,0.1-0.9,0.1c-0.5,0-0.9-0.1-1.1-0.4c-0.3-0.3-0.4-0.7-0.4-1.3c0-0.2,0-0.5,0.1-0.8
			c0-0.3,0.1-0.6,0.2-0.9c0.1-0.3,0.2-0.6,0.3-0.9c0.1-0.3,0.3-0.6,0.5-0.8c0.2-0.2,0.4-0.4,0.7-0.6c0.3-0.2,0.6-0.2,1-0.2
			c0.3,0,0.6,0,0.8,0.1c0.2,0.1,0.4,0.2,0.5,0.3c0.1,0.1,0.2,0.2,0.3,0.3c0.1,0.1,0.2,0.1,0.2,0.1c0.1,0,0.1,0,0.2-0.1
			c0.1-0.1,0.1-0.1,0.1-0.2C331.8,188,331.8,187.9,331.8,187.8 M325.3,169.8c0-0.2,0-0.4,0-0.6c0-0.3,0-0.5-0.1-0.8
			c-0.1-0.2-0.2-0.5-0.3-0.7c-0.2-0.2-0.4-0.3-0.6-0.5c-0.3-0.1-0.6-0.2-0.9-0.2c-0.3,0-0.7,0.1-1,0.2c-0.3,0.1-0.6,0.3-0.9,0.4
			c-0.3,0.2-0.5,0.4-0.7,0.6c-0.2,0.2-0.3,0.4-0.4,0.6l0.3-1.4c0,0,0-0.1,0-0.1c0,0,0-0.1-0.1-0.1c0,0-0.1,0-0.2,0
			c-0.1,0-0.2,0-0.3,0c-0.1,0-0.2,0-0.3,0c-0.1,0-0.1,0-0.2,0c-0.1,0-0.1,0.1-0.1,0.1c0,0,0,0.1,0,0.1l-1.5,7.6c0,0,0,0.1,0,0.1
			c0,0,0,0.1,0.1,0.1c0,0,0.1,0,0.2,0.1c0.1,0,0.2,0,0.3,0c0.1,0,0.2,0,0.3,0c0.1,0,0.2,0,0.2-0.1c0.1,0,0.1,0,0.1-0.1
			c0,0,0-0.1,0.1-0.1l0.7-3.4c0.1-0.5,0.2-0.9,0.5-1.3c0.2-0.4,0.4-0.8,0.7-1.1c0.3-0.3,0.6-0.5,0.9-0.7c0.3-0.2,0.6-0.3,0.9-0.3
			c0.3,0,0.6,0.1,0.7,0.3c0.1,0.2,0.2,0.5,0.2,0.8c0,0.1,0,0.3,0,0.4c0,0.2,0,0.3-0.1,0.5l-0.9,4.7c0,0,0,0.1,0,0.1
			c0,0,0,0.1,0.1,0.1c0,0,0.1,0,0.2,0.1c0.1,0,0.2,0,0.3,0c0.1,0,0.3,0,0.3,0c0.1,0,0.2,0,0.2-0.1c0.1,0,0.1,0,0.1-0.1
			c0,0,0-0.1,0.1-0.1l1-4.7C325.2,170.1,325.2,169.9,325.3,169.8 M317.9,186.5c-0.1,0-0.1,0-0.2,0c-0.1,0-0.1,0.1-0.1,0.1
			c0,0,0,0.1,0,0.1l-1.5,7.6c0,0,0,0.1,0,0.1c0,0,0,0.1,0.1,0.1c0,0,0.1,0,0.2,0c0.1,0,0.2,0,0.3,0c0.1,0,0.2,0,0.3,0
			c0.1,0,0.2,0,0.2,0c0.1,0,0.1,0,0.1-0.1c0,0,0-0.1,0.1-0.1l0.7-3.4c0.1-0.5,0.2-0.9,0.5-1.3c0.2-0.4,0.4-0.8,0.7-1.1
			c0.3-0.3,0.6-0.5,0.9-0.7c0.3-0.2,0.6-0.3,0.9-0.3c0.3,0,0.6,0.1,0.7,0.3c0.1,0.2,0.2,0.5,0.2,0.8c0,0.1,0,0.3,0,0.4
			c0,0.2,0,0.3-0.1,0.5l-0.9,4.7c0,0,0,0.1,0,0.1c0,0,0,0.1,0.1,0.1c0,0,0.1,0,0.2,0c0.1,0,0.2,0,0.3,0c0.1,0,0.3,0,0.3,0
			c0.1,0,0.2,0,0.2,0c0.1,0,0.1,0,0.1-0.1c0,0,0-0.1,0.1-0.1l1-4.7c0-0.2,0.1-0.4,0.1-0.6c0-0.2,0-0.4,0-0.6c0-0.3,0-0.5-0.1-0.8
			c-0.1-0.2-0.2-0.5-0.3-0.7c-0.2-0.2-0.4-0.3-0.6-0.5c-0.3-0.1-0.6-0.2-0.9-0.2c-0.3,0-0.7,0.1-1,0.2c-0.3,0.1-0.6,0.3-0.9,0.4
			c-0.3,0.2-0.5,0.4-0.7,0.6c-0.2,0.2-0.3,0.4-0.4,0.6l0.3-1.4c0,0,0-0.1,0-0.1c0,0,0-0.1-0.1-0.1c0,0-0.1,0-0.2,0
			c-0.1,0-0.2,0-0.3,0C318.1,186.5,318,186.5,317.9,186.5 M315,175.1l1.5-7.6c0,0,0-0.1,0-0.1c0,0,0-0.1-0.1-0.1c0,0-0.1,0-0.2,0
			c-0.1,0-0.2,0-0.3,0c-0.2,0-0.4,0-0.5,0.1c-0.1,0-0.2,0.1-0.2,0.2l-0.2,0.8c-0.3-0.4-0.6-0.6-1-0.8c-0.4-0.2-0.8-0.3-1.3-0.3
			s-0.9,0.1-1.3,0.3c-0.4,0.2-0.7,0.4-1,0.8c-0.3,0.3-0.6,0.7-0.8,1.1c-0.2,0.4-0.4,0.8-0.5,1.2c-0.1,0.4-0.2,0.8-0.3,1.2
			c-0.1,0.4-0.1,0.8-0.1,1.1c0,0.3,0,0.7,0.1,1c0.1,0.3,0.2,0.6,0.4,0.9c0.2,0.3,0.4,0.5,0.7,0.6c0.3,0.2,0.7,0.2,1.1,0.2
			c0.3,0,0.7-0.1,1-0.2c0.3-0.1,0.6-0.3,0.9-0.4c0.3-0.2,0.5-0.4,0.7-0.6c0.2-0.2,0.3-0.4,0.4-0.6l-0.3,1.4c0,0.1,0,0.1,0,0.1
			c0,0,0,0.1,0.1,0.1c0,0,0.1,0,0.2,0c0.1,0,0.2,0,0.3,0c0.2,0,0.4,0,0.5-0.1C314.9,175.2,315,175.2,315,175.1 M314.7,169.5
			l-0.3,1.4c-0.1,0.5-0.3,0.9-0.5,1.4c-0.2,0.4-0.4,0.8-0.7,1.1c-0.3,0.3-0.6,0.5-0.9,0.7c-0.3,0.2-0.6,0.3-0.9,0.3
			c-0.2,0-0.4-0.1-0.6-0.1c-0.2-0.1-0.3-0.2-0.4-0.4c-0.1-0.2-0.1-0.3-0.2-0.5c0-0.2,0-0.4,0-0.6c0-0.2,0-0.5,0.1-0.8
			c0-0.3,0.1-0.6,0.2-0.9c0.1-0.3,0.2-0.6,0.3-0.9c0.1-0.3,0.3-0.6,0.5-0.8c0.2-0.2,0.4-0.4,0.7-0.6c0.2-0.1,0.5-0.2,0.8-0.2
			c0.4,0,0.7,0.1,1,0.3C314.2,168.8,314.5,169.1,314.7,169.5 M309.5,187.3c-0.3,0.3-0.6,0.6-0.9,1c-0.2,0.4-0.4,0.8-0.6,1.2
			c-0.2,0.4-0.3,0.8-0.3,1.2c-0.1,0.4-0.1,0.8-0.1,1.2c0,0.5,0.1,0.9,0.2,1.2c0.1,0.3,0.3,0.6,0.6,0.9c0.2,0.2,0.6,0.4,0.9,0.5
			c0.4,0.1,0.8,0.2,1.3,0.2c0.3,0,0.6,0,0.8,0c0.3,0,0.5-0.1,0.8-0.1c0.2-0.1,0.4-0.1,0.6-0.2c0.2-0.1,0.3-0.1,0.4-0.2
			c0-0.1,0.1-0.1,0.1-0.2c0-0.1,0.1-0.1,0.1-0.2c0-0.1,0-0.2,0.1-0.2c0-0.1,0-0.1,0-0.2c0-0.1,0-0.1,0-0.2c0,0-0.1-0.1-0.1-0.1
			c0,0-0.1,0-0.3,0.1c-0.1,0.1-0.3,0.1-0.5,0.2c-0.2,0.1-0.5,0.1-0.7,0.2c-0.3,0.1-0.6,0.1-1,0.1c-0.6,0-1.1-0.1-1.4-0.4
			c-0.3-0.3-0.4-0.7-0.4-1.3c0-0.2,0-0.3,0-0.5c0-0.2,0-0.4,0.1-0.5h0.9c0.8,0,1.5-0.1,2.1-0.2c0.6-0.1,1.1-0.3,1.5-0.5
			c0.4-0.2,0.7-0.5,0.8-0.8c0.2-0.3,0.3-0.7,0.3-1c0-0.2,0-0.5-0.1-0.7c-0.1-0.2-0.2-0.4-0.5-0.6c-0.2-0.2-0.5-0.3-0.8-0.5
			c-0.3-0.1-0.7-0.2-1.2-0.2c-0.6,0-1,0.1-1.5,0.3C310.3,186.8,309.9,187.1,309.5,187.3 M309.4,189.8c0.1-0.3,0.2-0.6,0.4-0.9
			c0.2-0.3,0.3-0.5,0.6-0.7c0.2-0.2,0.5-0.4,0.7-0.5c0.3-0.1,0.6-0.2,1-0.2c0.4,0,0.7,0.1,1,0.3c0.2,0.2,0.3,0.4,0.3,0.7
			c0,0.2,0,0.4-0.1,0.5c-0.1,0.2-0.3,0.3-0.5,0.4c-0.2,0.1-0.6,0.2-1,0.3c-0.4,0.1-0.9,0.1-1.5,0.1H309.4z M308,164.9
			c0-0.2,0-0.3,0-0.4c0-0.1,0-0.2-0.1-0.3c-0.1-0.1-0.1-0.1-0.2-0.1c-0.1,0-0.2,0-0.4,0c-0.2,0-0.3,0-0.4,0c-0.1,0-0.2,0.1-0.3,0.1
			c-0.1,0.1-0.1,0.2-0.2,0.3c-0.1,0.1-0.1,0.2-0.1,0.4c0,0.2,0,0.3,0,0.4c0,0.1,0,0.2,0.1,0.3s0.1,0.1,0.2,0.1c0.1,0,0.2,0,0.4,0
			c0.2,0,0.3,0,0.4,0c0.1,0,0.2-0.1,0.3-0.1c0.1-0.1,0.1-0.1,0.2-0.3C307.9,165.2,308,165.1,308,164.9 M306.3,167.2
			c-0.1,0-0.2,0-0.2,0.1c-0.1,0-0.1,0.1-0.1,0.1c0,0,0,0.1-0.1,0.1l-1.5,7.6c0,0,0,0.1,0,0.1c0,0,0,0.1,0.1,0.1c0,0,0.1,0,0.2,0.1
			c0.1,0,0.2,0,0.3,0c0.1,0,0.2,0,0.3,0c0.1,0,0.2,0,0.2-0.1c0.1,0,0.1,0,0.1-0.1c0,0,0-0.1,0.1-0.1l1.5-7.6c0,0,0-0.1,0-0.1
			c0,0,0-0.1-0.1-0.1c0,0-0.1,0-0.2-0.1c-0.1,0-0.2,0-0.3,0C306.5,167.2,306.4,167.2,306.3,167.2 M304.7,184.5c-0.1,0-0.2,0-0.3,0
			c-0.1,0-0.2,0-0.2,0.1c-0.1,0-0.1,0.1-0.1,0.1c0,0-0.1,0.1-0.1,0.1l-0.4,1.8h-1.1c-0.1,0-0.1,0-0.2,0.1c-0.1,0.1-0.1,0.1-0.1,0.2
			c0,0.1-0.1,0.2-0.1,0.3c0,0.1,0,0.2,0,0.3c0,0.1,0,0.2,0.1,0.2c0,0,0.1,0.1,0.1,0.1h1.1l-0.8,4.3c0,0.1,0,0.2,0,0.3
			c0,0.1,0,0.2,0,0.3c0,0.1,0,0.2,0,0.3c0,0.1,0,0.2,0,0.2c0,0.3,0,0.6,0.1,0.8c0.1,0.2,0.2,0.4,0.4,0.5c0.2,0.1,0.4,0.2,0.6,0.3
			c0.2,0.1,0.5,0.1,0.8,0.1c0.1,0,0.3,0,0.4,0c0.1,0,0.3,0,0.4-0.1c0.1,0,0.2-0.1,0.3-0.1c0.1,0,0.2-0.1,0.2-0.1
			c0,0,0.1-0.1,0.1-0.2c0-0.1,0.1-0.1,0.1-0.2c0-0.1,0-0.2,0.1-0.3c0-0.1,0-0.2,0-0.2c0-0.1,0-0.1,0-0.2c0,0-0.1,0-0.1,0
			c0,0-0.1,0-0.2,0c-0.1,0-0.1,0.1-0.2,0.1c-0.1,0-0.2,0.1-0.3,0.1c-0.1,0-0.2,0-0.4,0c-0.3,0-0.5-0.1-0.6-0.2
			c-0.1-0.1-0.2-0.3-0.2-0.6c0-0.1,0-0.2,0-0.4s0-0.3,0.1-0.4l0.9-4.2h1.9c0.1,0,0.1,0,0.1,0c0,0,0.1-0.1,0.1-0.1
			c0,0,0.1-0.1,0.1-0.2c0-0.1,0.1-0.1,0.1-0.2c0-0.1,0-0.1,0-0.2c0-0.1,0-0.1,0-0.2c0-0.1,0-0.1,0-0.2c0-0.1-0.1-0.1-0.2-0.1h-1.9
			l0.4-1.8c0,0,0-0.1,0-0.1c0,0,0-0.1-0.1-0.1c0,0-0.1,0-0.2-0.1S304.8,184.5,304.7,184.5 M304,167.6c0-0.1,0-0.1,0-0.1
			c0-0.1,0-0.1-0.1-0.2c0,0-0.1-0.1-0.1-0.1c-0.1,0-0.1,0-0.2-0.1c-0.1,0-0.2,0-0.3-0.1c-0.1,0-0.2,0-0.3,0c-0.2,0-0.4,0-0.7,0.1
			c-0.2,0.1-0.4,0.2-0.7,0.4c-0.2,0.2-0.4,0.3-0.6,0.6c-0.2,0.2-0.3,0.4-0.5,0.7l0.3-1.4c0,0,0-0.1,0-0.1c0,0,0-0.1-0.1-0.1
			c0,0-0.1,0-0.2,0c-0.1,0-0.2,0-0.3,0c-0.1,0-0.2,0-0.3,0c-0.1,0-0.1,0-0.2,0c-0.1,0-0.1,0.1-0.1,0.1c0,0,0,0.1,0,0.1l-1.5,7.6
			c0,0,0,0.1,0,0.1c0,0,0,0.1,0.1,0.1c0,0,0.1,0,0.2,0.1c0.1,0,0.2,0,0.3,0c0.1,0,0.2,0,0.3,0c0.1,0,0.2,0,0.2-0.1
			c0.1,0,0.1,0,0.1-0.1c0,0,0-0.1,0.1-0.1l0.7-3.4c0.1-0.5,0.2-0.9,0.4-1.3c0.2-0.4,0.4-0.7,0.7-1c0.2-0.3,0.5-0.5,0.7-0.7
			c0.2-0.2,0.5-0.2,0.7-0.2c0.1,0,0.2,0,0.3,0c0.1,0,0.2,0,0.2,0.1c0.1,0,0.1,0.1,0.2,0.1c0.1,0,0.1,0,0.1,0c0,0,0.1,0,0.1-0.1
			c0-0.1,0.1-0.1,0.1-0.2c0-0.1,0.1-0.2,0.1-0.2c0-0.1,0-0.2,0.1-0.3C304,167.8,304,167.7,304,167.6 M298.9,186.6
			c-0.3-0.1-0.7-0.2-1.2-0.2c-0.6,0-1,0.1-1.5,0.3c-0.4,0.2-0.8,0.4-1.2,0.7c-0.3,0.3-0.6,0.6-0.9,1c-0.2,0.4-0.4,0.8-0.6,1.2
			c-0.2,0.4-0.3,0.8-0.3,1.2c-0.1,0.4-0.1,0.8-0.1,1.2c0,0.5,0.1,0.9,0.2,1.2c0.1,0.3,0.3,0.6,0.6,0.9c0.2,0.2,0.6,0.4,0.9,0.5
			c0.4,0.1,0.8,0.2,1.3,0.2c0.3,0,0.6,0,0.8,0c0.3,0,0.5-0.1,0.8-0.1c0.2-0.1,0.4-0.1,0.6-0.2c0.2-0.1,0.3-0.1,0.4-0.2
			c0-0.1,0.1-0.1,0.1-0.2c0-0.1,0.1-0.1,0.1-0.2c0-0.1,0-0.2,0.1-0.2c0-0.1,0-0.1,0-0.2c0-0.1,0-0.1,0-0.2c0,0-0.1-0.1-0.1-0.1
			c0,0-0.1,0-0.3,0.1c-0.1,0.1-0.3,0.1-0.5,0.2c-0.2,0.1-0.5,0.1-0.7,0.2c-0.3,0.1-0.6,0.1-1,0.1c-0.6,0-1.1-0.1-1.4-0.4
			c-0.3-0.3-0.4-0.7-0.4-1.3c0-0.2,0-0.3,0-0.5c0-0.2,0-0.4,0.1-0.5h0.9c0.8,0,1.5-0.1,2.1-0.2c0.6-0.1,1.1-0.3,1.5-0.5
			c0.4-0.2,0.7-0.5,0.8-0.8c0.2-0.3,0.3-0.7,0.3-1c0-0.2-0.1-0.5-0.1-0.7c-0.1-0.2-0.2-0.4-0.5-0.6
			C299.5,186.8,299.3,186.7,298.9,186.6 M298.9,188.5c0,0.2,0,0.4-0.1,0.5c-0.1,0.2-0.3,0.3-0.5,0.4c-0.2,0.1-0.6,0.2-1,0.3
			c-0.4,0.1-0.9,0.1-1.5,0.1H295c0.1-0.3,0.2-0.6,0.4-0.9c0.2-0.3,0.3-0.5,0.6-0.7c0.2-0.2,0.5-0.4,0.7-0.5c0.3-0.1,0.6-0.2,1-0.2
			c0.4,0,0.7,0.1,1,0.3C298.8,187.9,298.9,188.2,298.9,188.5 M297.6,167.7c0-0.1,0-0.1,0-0.2c0-0.1,0-0.1,0-0.2
			c0-0.1-0.1-0.1-0.2-0.1h-1.9l0.4-1.8c0,0,0-0.1,0-0.1c0,0,0-0.1-0.1-0.1c0,0-0.1,0-0.2-0.1c-0.1,0-0.2,0-0.3,0c-0.1,0-0.2,0-0.3,0
			c-0.1,0-0.2,0-0.2,0.1c-0.1,0-0.1,0.1-0.1,0.1c0,0,0,0.1-0.1,0.1l-0.4,1.8H293c-0.1,0-0.1,0-0.2,0.1c-0.1,0.1-0.1,0.1-0.1,0.2
			c0,0.1-0.1,0.2-0.1,0.3c0,0.1,0,0.2,0,0.3c0,0.1,0,0.2,0,0.2c0,0,0.1,0.1,0.1,0.1h1.1l-0.9,4.3c0,0.1,0,0.2,0,0.3
			c0,0.1,0,0.2,0,0.3c0,0.1,0,0.2,0,0.3c0,0.1,0,0.2,0,0.2c0,0.3,0,0.6,0.1,0.8c0.1,0.2,0.2,0.4,0.4,0.5c0.2,0.1,0.3,0.2,0.6,0.3
			c0.2,0.1,0.5,0.1,0.8,0.1c0.1,0,0.3,0,0.4,0c0.1,0,0.3,0,0.4-0.1c0.1,0,0.2-0.1,0.3-0.1c0.1,0,0.2-0.1,0.2-0.1
			c0,0,0.1-0.1,0.1-0.2c0-0.1,0.1-0.1,0.1-0.2c0-0.1,0-0.2,0.1-0.3c0-0.1,0-0.2,0-0.2c0-0.1,0-0.1,0-0.2c0,0-0.1,0-0.1,0
			c0,0-0.1,0-0.2,0c-0.1,0-0.1,0.1-0.2,0.1c-0.1,0-0.2,0.1-0.3,0.1c-0.1,0-0.2,0-0.4,0c-0.3,0-0.5-0.1-0.6-0.2
			c-0.1-0.1-0.2-0.3-0.2-0.6c0-0.1,0-0.2,0-0.4c0-0.1,0-0.3,0.1-0.4l0.9-4.2h1.9c0.1,0,0.1,0,0.1,0c0,0,0.1-0.1,0.1-0.1
			c0,0,0.1-0.1,0.1-0.2c0-0.1,0-0.1,0.1-0.2C297.6,167.9,297.6,167.8,297.6,167.7 M292.9,205.8c-0.1,0-0.2,0-0.3,0
			c-0.1,0-0.2,0-0.3,0c-0.1,0-0.1,0-0.2,0c-0.1,0-0.1,0.1-0.1,0.1c0,0,0,0.1,0,0.1l-1.5,7.6c0,0,0,0.1,0,0.1c0,0,0,0.1,0.1,0.1
			c0,0,0.1,0,0.2,0.1c0.1,0,0.2,0,0.3,0c0.1,0,0.2,0,0.3,0c0.1,0,0.2,0,0.2-0.1c0.1,0,0.1,0,0.1-0.1c0,0,0-0.1,0.1-0.1l0.7-3.4
			c0.1-0.5,0.2-0.9,0.5-1.3c0.2-0.4,0.5-0.8,0.7-1.1c0.3-0.3,0.6-0.5,0.9-0.7c0.3-0.2,0.6-0.3,0.9-0.3c0.3,0,0.6,0.1,0.7,0.3
			c0.1,0.2,0.2,0.5,0.2,0.8c0,0.1,0,0.3,0,0.4c0,0.2,0,0.3-0.1,0.5l-0.9,4.7c0,0,0,0.1,0,0.1c0,0,0,0.1,0.1,0.1c0,0,0.1,0,0.2,0.1
			c0.1,0,0.2,0,0.3,0c0.1,0,0.3,0,0.3,0c0.1,0,0.2,0,0.2-0.1c0.1,0,0.1,0,0.1-0.1c0,0,0-0.1,0.1-0.1l1-4.7c0-0.2,0.1-0.4,0.1-0.6
			c0-0.2,0-0.4,0-0.6c0-0.3,0-0.5-0.1-0.8c-0.1-0.2-0.2-0.5-0.3-0.7c-0.2-0.2-0.4-0.3-0.6-0.5c-0.3-0.1-0.6-0.2-0.9-0.2
			c-0.3,0-0.7,0.1-1,0.2c-0.3,0.1-0.6,0.3-0.9,0.4c-0.3,0.2-0.5,0.4-0.7,0.6c-0.2,0.2-0.3,0.4-0.4,0.6l0.3-1.4c0,0,0-0.1,0-0.1
			c0,0,0-0.1-0.1-0.1C293,205.8,293,205.8,292.9,205.8 M291.4,190.2c0.1-0.4,0.1-0.8,0.1-1.1c0-0.4,0-0.7-0.1-1.1
			c-0.1-0.3-0.2-0.6-0.4-0.9c-0.2-0.2-0.4-0.4-0.7-0.6c-0.3-0.1-0.6-0.2-1.1-0.2c-0.3,0-0.7,0.1-1,0.2c-0.3,0.1-0.6,0.3-0.9,0.4
			c-0.3,0.2-0.5,0.4-0.7,0.6c-0.2,0.2-0.3,0.4-0.4,0.6l0.3-1.4c0,0,0-0.1,0-0.1c0,0,0-0.1-0.1-0.1c0,0-0.1,0-0.2,0
			c-0.1,0-0.2,0-0.3,0c-0.2,0-0.4,0-0.5,0.1c-0.1,0-0.2,0.1-0.2,0.2l-2.1,10.6c0,0,0,0.1,0,0.1c0,0,0,0.1,0.1,0.1
			c0.1,0,0.1,0,0.2,0.1c0.1,0,0.2,0,0.3,0c0.1,0,0.3,0,0.4,0c0.1,0,0.2,0,0.2-0.1c0.1,0,0.1-0.1,0.1-0.1c0,0,0-0.1,0.1-0.1l0.7-3.6
			c0.1,0.1,0.3,0.3,0.4,0.4c0.1,0.1,0.3,0.2,0.5,0.3c0.2,0.1,0.4,0.2,0.6,0.2c0.2,0.1,0.4,0.1,0.7,0.1c0.5,0,0.9-0.1,1.3-0.3
			c0.4-0.2,0.7-0.4,1-0.7c0.3-0.3,0.6-0.6,0.8-1c0.2-0.4,0.4-0.8,0.5-1.2C291.2,191.1,291.3,190.6,291.4,190.2 M290,189.2
			c0,0.3,0,0.5-0.1,0.9c0,0.3-0.1,0.6-0.2,1c-0.1,0.3-0.2,0.6-0.3,0.9c-0.1,0.3-0.3,0.6-0.5,0.8c-0.2,0.2-0.4,0.4-0.6,0.6
			c-0.2,0.1-0.5,0.2-0.8,0.2c-0.4,0-0.7-0.1-1-0.3c-0.3-0.2-0.6-0.5-0.9-0.9l0.3-1.4c0.1-0.5,0.2-0.9,0.5-1.4
			c0.2-0.4,0.5-0.8,0.7-1.1c0.3-0.3,0.6-0.5,0.9-0.7c0.3-0.2,0.6-0.3,0.9-0.3c0.2,0,0.4,0,0.6,0.1c0.1,0.1,0.3,0.2,0.4,0.3
			c0.1,0.1,0.2,0.3,0.2,0.5C290,188.8,290,189,290,189.2 M290.8,168.1c0-0.1,0-0.2,0-0.2c0-0.1,0-0.2-0.1-0.3
			c-0.1-0.1-0.2-0.1-0.3-0.2c-0.1-0.1-0.3-0.1-0.4-0.2c-0.2,0-0.4-0.1-0.6-0.1c-0.2,0-0.4-0.1-0.6-0.1c-0.5,0-0.9,0.1-1.2,0.2
			c-0.4,0.1-0.7,0.3-1,0.5c-0.3,0.2-0.5,0.5-0.6,0.8c-0.1,0.3-0.2,0.7-0.2,1c0,0.4,0.1,0.7,0.2,0.9c0.2,0.2,0.3,0.4,0.6,0.6
			c0.2,0.2,0.5,0.3,0.7,0.4c0.3,0.1,0.5,0.2,0.7,0.4c0.2,0.1,0.4,0.3,0.6,0.4c0.1,0.1,0.2,0.3,0.2,0.6c0,0.2,0,0.4-0.1,0.5
			c-0.1,0.2-0.2,0.3-0.3,0.4c-0.1,0.1-0.3,0.2-0.6,0.3c-0.2,0.1-0.5,0.1-0.8,0.1c-0.3,0-0.6,0-0.9-0.1s-0.4-0.2-0.6-0.2
			c-0.2-0.1-0.3-0.2-0.4-0.2c-0.1-0.1-0.2-0.1-0.2-0.1c0,0-0.1,0-0.1,0c0,0-0.1,0.1-0.1,0.1c0,0-0.1,0.1-0.1,0.2
			c0,0.1,0,0.1-0.1,0.2c0,0.1,0,0.1,0,0.2c0,0.1,0,0.1,0,0.2c0,0.1,0,0.1,0,0.2c0,0,0.1,0.1,0.1,0.1c0.1,0.1,0.2,0.1,0.3,0.2
			c0.1,0.1,0.3,0.1,0.5,0.2c0.2,0.1,0.4,0.1,0.6,0.2c0.2,0,0.5,0.1,0.7,0.1c0.5,0,1-0.1,1.4-0.2c0.4-0.1,0.8-0.3,1-0.6
			c0.3-0.2,0.5-0.5,0.7-0.9c0.2-0.3,0.2-0.7,0.2-1.1c0-0.4-0.1-0.6-0.2-0.9c-0.1-0.2-0.3-0.4-0.6-0.6c-0.2-0.2-0.5-0.3-0.7-0.4
			c-0.3-0.1-0.5-0.2-0.7-0.3c-0.2-0.1-0.4-0.3-0.6-0.4c-0.1-0.2-0.2-0.3-0.2-0.6c0-0.2,0-0.3,0.1-0.5c0.1-0.2,0.2-0.3,0.3-0.4
			c0.1-0.1,0.3-0.2,0.5-0.3c0.2-0.1,0.4-0.1,0.7-0.1c0.3,0,0.5,0,0.7,0.1c0.2,0.1,0.3,0.1,0.5,0.2c0.1,0.1,0.2,0.1,0.3,0.2
			c0.1,0.1,0.2,0.1,0.2,0.1c0,0,0.1,0,0.1-0.1c0-0.1,0.1-0.1,0.1-0.2C290.8,168.3,290.8,168.2,290.8,168.1 M282.3,175.1l1.5-7.6
			c0,0,0-0.1,0-0.1c0,0,0-0.1-0.1-0.1c0,0-0.1,0-0.2,0c-0.1,0-0.2,0-0.3,0c-0.1,0-0.2,0-0.3,0c-0.1,0-0.2,0-0.2,0
			c-0.1,0-0.1,0.1-0.1,0.1c0,0,0,0.1-0.1,0.1l-0.7,3.4c-0.1,0.5-0.3,1-0.5,1.4c-0.2,0.4-0.5,0.8-0.7,1.1c-0.3,0.3-0.6,0.5-0.9,0.7
			c-0.3,0.2-0.6,0.3-0.9,0.3c-0.2,0-0.3,0-0.4-0.1c-0.1-0.1-0.2-0.1-0.3-0.2c-0.1-0.1-0.1-0.2-0.2-0.4c0-0.1,0-0.3,0-0.5
			c0-0.2,0-0.3,0-0.5c0-0.2,0-0.3,0.1-0.5l0.9-4.7c0,0,0-0.1,0-0.1c0,0,0-0.1-0.1-0.1c-0.1,0-0.1,0-0.2,0c-0.1,0-0.2,0-0.3,0
			c-0.1,0-0.2,0-0.3,0c-0.1,0-0.2,0-0.2,0c-0.1,0-0.1,0.1-0.1,0.1c0,0,0,0.1-0.1,0.1l-0.9,4.8c0,0.2-0.1,0.4-0.1,0.6
			c0,0.2,0,0.4,0,0.6c0,0.3,0,0.6,0.1,0.8c0.1,0.2,0.2,0.5,0.3,0.6c0.2,0.2,0.4,0.3,0.6,0.4c0.3,0.1,0.6,0.2,1,0.2
			c0.3,0,0.6-0.1,0.9-0.2c0.3-0.1,0.6-0.3,0.9-0.4c0.3-0.2,0.5-0.4,0.7-0.6c0.2-0.2,0.3-0.4,0.4-0.6l-0.3,1.4c0,0,0,0.1,0,0.1
			c0,0,0,0.1,0.1,0.1c0,0,0.1,0,0.2,0c0.1,0,0.2,0,0.3,0c0.1,0,0.2,0,0.3,0c0.1,0,0.1,0,0.2,0c0,0,0.1,0,0.1-0.1
			C282.2,175.2,282.3,175.1,282.3,175.1 M276.7,186.9c-0.2-0.2-0.4-0.3-0.6-0.4c-0.2-0.1-0.5-0.1-0.9-0.1c-0.3,0-0.6,0.1-0.9,0.2
			c-0.3,0.1-0.6,0.3-0.8,0.4c-0.3,0.2-0.5,0.4-0.7,0.6c-0.2,0.2-0.3,0.4-0.4,0.6l0.3-1.4c0,0,0-0.1,0-0.1c0,0,0-0.1-0.1-0.1
			c0,0-0.1,0-0.2,0c-0.1,0-0.2,0-0.3,0c-0.1,0-0.2,0-0.3,0c-0.1,0-0.2,0-0.2,0c-0.1,0-0.1,0.1-0.1,0.1c0,0,0,0.1,0,0.1l-1.5,7.6
			c0,0,0,0.1,0,0.1c0,0,0,0.1,0.1,0.1c0,0,0.1,0,0.2,0c0.1,0,0.2,0,0.3,0c0.1,0,0.2,0,0.3,0c0.1,0,0.2,0,0.2,0c0.1,0,0.1,0,0.1-0.1
			c0,0,0-0.1,0.1-0.1l0.7-3.4c0.1-0.5,0.2-0.9,0.5-1.3c0.2-0.4,0.4-0.8,0.7-1.1c0.3-0.3,0.6-0.5,0.9-0.7c0.3-0.2,0.6-0.3,0.9-0.3
			c0.3,0,0.6,0.1,0.7,0.3c0.1,0.2,0.2,0.5,0.2,0.8c0,0.1,0,0.3,0,0.5c0,0.2,0,0.3-0.1,0.5l-0.9,4.7c0,0,0,0.1,0,0.1
			c0,0,0,0.1,0.1,0.1c0,0,0.1,0,0.2,0c0.1,0,0.2,0,0.3,0c0.1,0,0.2,0,0.3,0c0.1,0,0.2,0,0.2,0c0.1,0,0.1,0,0.1-0.1
			c0,0,0-0.1,0.1-0.1l0.7-3.4c0.1-0.5,0.2-0.9,0.5-1.3c0.2-0.4,0.4-0.8,0.7-1.1c0.3-0.3,0.6-0.5,0.9-0.7c0.3-0.2,0.6-0.3,0.9-0.3
			c0.3,0,0.6,0.1,0.7,0.3c0.1,0.2,0.2,0.5,0.2,0.9c0,0.1,0,0.3,0,0.4c0,0.1,0,0.3-0.1,0.5l-0.9,4.7c0,0,0,0.1,0,0.1
			c0,0,0.1,0.1,0.1,0.1c0,0,0.1,0,0.2,0c0.1,0,0.2,0,0.3,0c0.1,0,0.2,0,0.3,0c0.1,0,0.2,0,0.2,0c0.1,0,0.1,0,0.1-0.1
			c0,0,0-0.1,0-0.1l1-4.7c0-0.2,0.1-0.4,0.1-0.6c0-0.2,0-0.4,0-0.6c0-0.3,0-0.6-0.1-0.8c-0.1-0.2-0.2-0.5-0.3-0.6
			c-0.2-0.2-0.4-0.3-0.6-0.4c-0.3-0.1-0.6-0.2-0.9-0.2c-0.3,0-0.6,0.1-0.9,0.2c-0.3,0.1-0.6,0.3-0.8,0.4c-0.3,0.2-0.5,0.4-0.7,0.6
			c-0.2,0.2-0.3,0.4-0.5,0.6c0-0.3-0.1-0.5-0.1-0.7C277,187.3,276.9,187.1,276.7,186.9 M274,175.2c0.1,0,0.1-0.1,0.1-0.2
			c0-0.1,0-0.2,0-0.3l-1.6-10.1c0-0.1,0-0.1-0.1-0.2c0,0-0.1-0.1-0.1-0.1c-0.1,0-0.2,0-0.3,0c-0.1,0-0.3,0-0.5,0c-0.2,0-0.3,0-0.4,0
			c-0.1,0-0.2,0-0.3,0c-0.1,0-0.1,0.1-0.2,0.1c0,0-0.1,0.1-0.1,0.2l-5.7,10.1c-0.1,0.1-0.1,0.2-0.1,0.3c0,0.1,0,0.1,0,0.2
			c0,0,0.1,0.1,0.2,0.1c0.1,0,0.2,0,0.4,0c0.2,0,0.3,0,0.4,0c0.1,0,0.2,0,0.3,0c0.1,0,0.1-0.1,0.2-0.1c0,0,0.1-0.1,0.1-0.1l1.4-2.6
			h4.5l0.4,2.7c0,0.1,0,0.1,0,0.1c0,0,0.1,0.1,0.1,0.1c0,0,0.1,0,0.2,0c0.1,0,0.2,0,0.3,0c0.2,0,0.3,0,0.5,0
			C273.9,175.3,273.9,175.3,274,175.2 M272.1,171.3h-3.8l2.9-5.4h0L272.1,171.3z M265.3,186.4c-0.5,0-1,0.1-1.4,0.2
			c-0.4,0.2-0.8,0.4-1.1,0.6c-0.3,0.3-0.6,0.6-0.9,0.9c-0.2,0.4-0.4,0.7-0.6,1.1c-0.2,0.4-0.3,0.8-0.4,1.2c-0.1,0.4-0.1,0.9-0.1,1.3
			c0,0.5,0.1,0.9,0.2,1.2c0.1,0.4,0.3,0.7,0.5,0.9c0.2,0.2,0.6,0.4,0.9,0.6c0.4,0.1,0.8,0.2,1.4,0.2c0.5,0,1-0.1,1.4-0.2
			c0.4-0.2,0.8-0.4,1.1-0.6c0.3-0.3,0.6-0.6,0.9-0.9c0.2-0.4,0.5-0.7,0.6-1.1c0.2-0.4,0.3-0.8,0.4-1.2c0.1-0.4,0.1-0.9,0.1-1.3
			c0-0.4-0.1-0.9-0.2-1.2c-0.1-0.4-0.3-0.7-0.6-0.9c-0.2-0.2-0.6-0.4-1-0.6C266.3,186.5,265.9,186.4,265.3,186.4 M265.2,187.6
			c0.3,0,0.6,0,0.8,0.1c0.2,0.1,0.4,0.2,0.5,0.4c0.1,0.2,0.2,0.3,0.3,0.6c0.1,0.2,0.1,0.5,0.1,0.8c0,0.3,0,0.6-0.1,1
			c0,0.3-0.1,0.6-0.2,1c-0.1,0.3-0.2,0.6-0.4,0.9c-0.2,0.3-0.3,0.5-0.6,0.7c-0.2,0.2-0.5,0.4-0.7,0.5c-0.3,0.1-0.6,0.2-0.9,0.2
			c-0.3,0-0.6,0-0.8-0.1c-0.2-0.1-0.4-0.2-0.5-0.4s-0.2-0.3-0.3-0.6c-0.1-0.2-0.1-0.5-0.1-0.8c0-0.3,0-0.6,0.1-1
			c0.1-0.3,0.1-0.7,0.2-1c0.1-0.3,0.2-0.6,0.4-0.9c0.2-0.3,0.3-0.5,0.6-0.7c0.2-0.2,0.5-0.4,0.7-0.5
			C264.6,187.6,264.9,187.6,265.2,187.6 M260.4,185.2c0-0.2,0.1-0.3,0.1-0.4c0-0.1-0.1-0.3-0.2-0.4s-0.3-0.2-0.5-0.4
			c-0.3-0.1-0.6-0.3-0.9-0.3c-0.4-0.1-0.7-0.1-1.1-0.1c-0.7,0-1.2,0.1-1.8,0.3c-0.5,0.2-1,0.5-1.5,0.8c-0.4,0.4-0.8,0.8-1.1,1.2
			c-0.3,0.5-0.6,1-0.8,1.5c-0.2,0.5-0.4,1.1-0.5,1.6c-0.1,0.6-0.2,1.1-0.2,1.6c0,0.6,0.1,1.2,0.3,1.7c0.2,0.5,0.4,0.9,0.8,1.2
			c0.3,0.3,0.7,0.6,1.2,0.8c0.5,0.2,1,0.3,1.6,0.3c0.4,0,0.7,0,1.1-0.1c0.3-0.1,0.6-0.2,0.9-0.3c0.3-0.1,0.5-0.2,0.7-0.3
			c0.2-0.1,0.3-0.2,0.4-0.2c0.1-0.1,0.1-0.1,0.1-0.2c0-0.1,0-0.1,0.1-0.2c0-0.1,0-0.1,0.1-0.2c0-0.1,0-0.1,0-0.2c0-0.1,0-0.1,0-0.2
			c0-0.1,0-0.1,0-0.1c0-0.1,0-0.2,0-0.2c0,0-0.1-0.1-0.1-0.1c-0.1,0-0.2,0-0.4,0.1c-0.2,0.1-0.3,0.2-0.6,0.3
			c-0.2,0.1-0.5,0.2-0.8,0.3c-0.3,0.1-0.7,0.1-1.1,0.1c-0.4,0-0.7-0.1-1.1-0.2c-0.3-0.1-0.6-0.3-0.8-0.5c-0.2-0.2-0.4-0.5-0.5-0.9
			c-0.1-0.4-0.2-0.8-0.2-1.2c0-0.4,0-0.8,0.1-1.2c0.1-0.4,0.2-0.9,0.3-1.3c0.2-0.4,0.4-0.8,0.6-1.2c0.2-0.4,0.5-0.7,0.8-1
			c0.3-0.3,0.7-0.5,1-0.7c0.4-0.2,0.8-0.3,1.3-0.3c0.4,0,0.8,0.1,1.1,0.2s0.5,0.2,0.7,0.3c0.2,0.1,0.3,0.2,0.4,0.3
			c0.1,0.1,0.2,0.2,0.3,0.2c0.1,0,0.1-0.1,0.2-0.2C260.3,185.5,260.4,185.4,260.4,185.2 M273.2,208.4c-0.1,0.6-0.2,1.1-0.2,1.6
			c0,0.6,0.1,1.2,0.3,1.7c0.2,0.5,0.4,0.9,0.8,1.2c0.3,0.3,0.7,0.6,1.2,0.8c0.5,0.2,1,0.3,1.5,0.3c0.4,0,0.7,0,1.1-0.1
			c0.3-0.1,0.6-0.2,0.9-0.3c0.3-0.1,0.5-0.2,0.7-0.3c0.2-0.1,0.3-0.2,0.4-0.2c0.1-0.1,0.1-0.1,0.1-0.2c0-0.1,0-0.1,0.1-0.2
			s0-0.1,0.1-0.2c0-0.1,0-0.1,0-0.2c0-0.1,0-0.1,0-0.2c0-0.1,0-0.1,0-0.1c0-0.1,0-0.2,0-0.2c0,0-0.1-0.1-0.1-0.1
			c-0.1,0-0.2,0-0.4,0.1c-0.2,0.1-0.3,0.2-0.6,0.3c-0.2,0.1-0.5,0.2-0.8,0.3c-0.3,0.1-0.7,0.1-1.1,0.1c-0.4,0-0.7-0.1-1.1-0.2
			c-0.3-0.1-0.6-0.3-0.8-0.5c-0.2-0.2-0.4-0.5-0.5-0.9c-0.1-0.4-0.2-0.8-0.2-1.2c0-0.4,0-0.8,0.1-1.2c0.1-0.4,0.2-0.9,0.4-1.3
			c0.2-0.4,0.3-0.8,0.6-1.2c0.2-0.4,0.5-0.7,0.8-1c0.3-0.3,0.7-0.5,1-0.7c0.4-0.2,0.8-0.3,1.3-0.3c0.4,0,0.8,0.1,1.1,0.2
			c0.3,0.1,0.5,0.2,0.7,0.3c0.2,0.1,0.3,0.2,0.4,0.3c0.1,0.1,0.2,0.2,0.3,0.2c0.1,0,0.1,0,0.2-0.2c0.1-0.1,0.1-0.2,0.2-0.4
			c0-0.2,0.1-0.3,0.1-0.4c0-0.1-0.1-0.3-0.2-0.4c-0.1-0.1-0.3-0.2-0.5-0.4c-0.3-0.1-0.6-0.3-0.9-0.4c-0.4-0.1-0.7-0.1-1.1-0.1
			c-0.7,0-1.2,0.1-1.8,0.3c-0.5,0.2-1,0.5-1.5,0.8c-0.4,0.4-0.8,0.8-1.1,1.2c-0.3,0.5-0.6,1-0.8,1.5
			C273.5,207.2,273.3,207.8,273.2,208.4 M282.1,210c-0.1,0.4-0.1,0.8-0.1,1.2c0,0.5,0.1,0.9,0.2,1.2c0.1,0.3,0.3,0.6,0.6,0.9
			c0.2,0.2,0.6,0.4,0.9,0.5c0.4,0.1,0.8,0.2,1.3,0.2c0.3,0,0.6,0,0.8-0.1c0.3,0,0.5-0.1,0.8-0.1c0.2-0.1,0.4-0.1,0.6-0.2
			c0.2-0.1,0.3-0.1,0.4-0.2c0-0.1,0.1-0.1,0.1-0.2c0-0.1,0.1-0.1,0.1-0.2c0-0.1,0-0.2,0.1-0.2c0-0.1,0-0.1,0-0.2c0-0.1,0-0.1,0-0.2
			c0,0-0.1-0.1-0.1-0.1s-0.1,0-0.3,0.1c-0.1,0.1-0.3,0.1-0.5,0.2c-0.2,0.1-0.5,0.1-0.7,0.2c-0.3,0.1-0.6,0.1-1,0.1
			c-0.6,0-1.1-0.1-1.4-0.4c-0.3-0.3-0.4-0.7-0.4-1.3c0-0.2,0-0.3,0-0.5c0-0.2,0-0.4,0.1-0.5h0.9c0.8,0,1.5-0.1,2.1-0.2
			c0.6-0.1,1.1-0.3,1.5-0.5c0.4-0.2,0.7-0.5,0.8-0.8c0.2-0.3,0.3-0.7,0.3-1c0-0.2,0-0.5-0.1-0.7c-0.1-0.2-0.2-0.4-0.5-0.6
			c-0.2-0.2-0.5-0.3-0.8-0.5c-0.3-0.1-0.7-0.2-1.2-0.2c-0.5,0-1,0.1-1.5,0.3c-0.4,0.2-0.8,0.4-1.2,0.7c-0.3,0.3-0.6,0.6-0.9,1
			c-0.2,0.4-0.4,0.8-0.6,1.2C282.3,209.2,282.2,209.6,282.1,210 M283.8,209.1c0.1-0.3,0.2-0.6,0.4-0.9c0.2-0.3,0.3-0.5,0.6-0.7
			c0.2-0.2,0.5-0.4,0.7-0.5c0.3-0.1,0.6-0.2,1-0.2c0.4,0,0.7,0.1,1,0.3c0.2,0.2,0.3,0.4,0.3,0.7c0,0.2,0,0.4-0.1,0.5
			c-0.1,0.2-0.3,0.3-0.5,0.4c-0.2,0.1-0.6,0.2-1,0.3c-0.4,0.1-0.9,0.1-1.5,0.1H283.8z M299.9,206.4c0,0.1,0,0.2,0,0.3
			c0,0.1,0,0.2,0,0.2c0,0,0.1,0.1,0.1,0.1h1.1l-0.9,4.3c0,0.1,0,0.2,0,0.3c0,0.1,0,0.2,0,0.3c0,0.1,0,0.2,0,0.3c0,0.1,0,0.2,0,0.2
			c0,0.3,0,0.6,0.1,0.8s0.2,0.4,0.4,0.5c0.2,0.1,0.3,0.2,0.6,0.3c0.2,0.1,0.5,0.1,0.8,0.1c0.1,0,0.3,0,0.4,0c0.1,0,0.3,0,0.4-0.1
			c0.1,0,0.2-0.1,0.3-0.1c0.1,0,0.2-0.1,0.2-0.1c0,0,0.1-0.1,0.1-0.2c0-0.1,0.1-0.1,0.1-0.2c0-0.1,0-0.2,0.1-0.3c0-0.1,0-0.2,0-0.2
			c0-0.1,0-0.1,0-0.2c0,0-0.1,0-0.1,0c0,0-0.1,0-0.2,0c-0.1,0-0.1,0.1-0.2,0.1c-0.1,0-0.2,0.1-0.3,0.1c-0.1,0-0.2,0-0.4,0
			c-0.3,0-0.5-0.1-0.6-0.2c-0.1-0.1-0.2-0.3-0.2-0.6c0-0.1,0-0.2,0-0.4c0-0.1,0-0.3,0.1-0.4l0.8-4.2h1.9c0.1,0,0.1,0,0.1,0
			c0,0,0.1-0.1,0.1-0.1c0,0,0.1-0.1,0.1-0.2c0-0.1,0.1-0.1,0.1-0.2c0-0.1,0-0.1,0-0.2c0-0.1,0-0.1,0-0.2c0-0.1,0-0.1,0-0.2
			c0-0.1-0.1-0.1-0.2-0.1h-1.9l0.4-1.8c0,0,0-0.1,0-0.1c0,0,0-0.1-0.1-0.1c0,0-0.1,0-0.2-0.1c-0.1,0-0.2,0-0.3,0c-0.1,0-0.2,0-0.3,0
			c-0.1,0-0.2,0-0.2,0.1c-0.1,0-0.1,0.1-0.1,0.1c0,0,0,0.1-0.1,0.1l-0.4,1.8h-1.1c-0.1,0-0.1,0-0.2,0.1c-0.1,0.1-0.1,0.1-0.1,0.2
			C299.9,206.2,299.9,206.3,299.9,206.4 M307,206l-1.5,7.6c0,0,0,0.1,0,0.1c0,0,0,0.1,0.1,0.1c0,0,0.1,0,0.2,0.1c0.1,0,0.2,0,0.3,0
			c0.1,0,0.2,0,0.3,0c0.1,0,0.2,0,0.2-0.1c0.1,0,0.1,0,0.1-0.1c0,0,0-0.1,0.1-0.1l0.7-3.4c0.1-0.5,0.2-0.9,0.4-1.3
			c0.2-0.4,0.4-0.7,0.7-1c0.2-0.3,0.5-0.5,0.7-0.7c0.2-0.2,0.5-0.2,0.7-0.2c0.1,0,0.2,0,0.3,0c0.1,0,0.2,0,0.2,0.1
			c0.1,0,0.1,0.1,0.2,0.1c0.1,0,0.1,0,0.1,0c0,0,0.1,0,0.1-0.1c0,0,0.1-0.1,0.1-0.2c0-0.1,0.1-0.2,0.1-0.2c0-0.1,0-0.2,0.1-0.3
			c0-0.1,0-0.2,0-0.2c0-0.1,0-0.1,0-0.1c0-0.1,0-0.1-0.1-0.2c0,0-0.1-0.1-0.1-0.1c-0.1,0-0.1,0-0.2-0.1c-0.1,0-0.2,0-0.3-0.1
			c-0.1,0-0.2,0-0.3,0c-0.2,0-0.4,0-0.7,0.1c-0.2,0.1-0.4,0.2-0.7,0.4c-0.2,0.2-0.4,0.3-0.6,0.6c-0.2,0.2-0.3,0.4-0.5,0.7l0.3-1.4
			c0,0,0-0.1,0-0.1c0,0,0-0.1-0.1-0.1c0,0-0.1,0-0.2,0c-0.1,0-0.2,0-0.3,0c-0.1,0-0.2,0-0.3,0c-0.1,0-0.1,0-0.2,0
			c-0.1,0-0.1,0.1-0.1,0.1C307,206,307,206,307,206 M311.8,210c-0.1,0.4-0.1,0.8-0.1,1.2c0,0.5,0.1,0.9,0.2,1.2
			c0.1,0.3,0.3,0.6,0.6,0.9c0.2,0.2,0.6,0.4,0.9,0.5c0.4,0.1,0.8,0.2,1.3,0.2c0.3,0,0.6,0,0.8-0.1c0.3,0,0.5-0.1,0.8-0.1
			c0.2-0.1,0.4-0.1,0.6-0.2c0.2-0.1,0.3-0.1,0.4-0.2c0-0.1,0.1-0.1,0.1-0.2c0-0.1,0.1-0.1,0.1-0.2c0-0.1,0-0.2,0.1-0.2
			c0-0.1,0-0.1,0-0.2c0-0.1,0-0.1,0-0.2c0,0-0.1-0.1-0.1-0.1c-0.1,0-0.1,0-0.3,0.1c-0.1,0.1-0.3,0.1-0.5,0.2
			c-0.2,0.1-0.5,0.1-0.7,0.2c-0.3,0.1-0.6,0.1-1,0.1c-0.6,0-1.1-0.1-1.4-0.4c-0.3-0.3-0.4-0.7-0.4-1.3c0-0.2,0-0.3,0-0.5
			c0-0.2,0-0.4,0.1-0.5h0.9c0.8,0,1.5-0.1,2.1-0.2c0.6-0.1,1.1-0.3,1.5-0.5c0.4-0.2,0.7-0.5,0.8-0.8c0.2-0.3,0.3-0.7,0.3-1
			c0-0.2,0-0.5-0.1-0.7c-0.1-0.2-0.2-0.4-0.5-0.6c-0.2-0.2-0.5-0.3-0.8-0.5c-0.3-0.1-0.7-0.2-1.2-0.2c-0.6,0-1,0.1-1.5,0.3
			c-0.4,0.2-0.8,0.4-1.2,0.7c-0.3,0.3-0.6,0.6-0.9,1c-0.2,0.4-0.4,0.8-0.6,1.2C312,209.2,311.9,209.6,311.8,210 M313.5,209.1
			c0.1-0.3,0.2-0.6,0.4-0.9c0.2-0.3,0.3-0.5,0.6-0.7c0.2-0.2,0.5-0.4,0.7-0.5c0.3-0.1,0.6-0.2,1-0.2c0.4,0,0.7,0.1,1,0.3
			c0.2,0.2,0.3,0.4,0.3,0.7c0,0.2,0,0.4-0.1,0.5c-0.1,0.2-0.3,0.3-0.5,0.4c-0.2,0.1-0.6,0.2-1,0.3c-0.4,0.1-0.9,0.1-1.5,0.1H313.5z"
			/>
	</g>
</g>
<g class="fuchsauge">
	<path class="foxycolor" d="M166.8,124.1c-0.1-0.1-9.1-6.1-16.7-6.6c-6.3-0.4-11,1-13.8,2.3c-3.1,1.4-4.6,2.8-4.7,2.9
		c-0.1,0.1-0.1,0.2,0,0.3c0.1,0.1,0.2,0.1,0.3,0.1c0.1,0,6.1-3.3,14.6-2.9c4,0.2,8.5,1.6,10.3,2.3c-1.9,0.3-6.6,1.4-10.7,3.7
		c-5.3,3-8.5,7.7-8.5,7.8c-0.1,0.1,0,0.2,0,0.3c0,0,0.1,0.1,0.1,0.1c0.1,0,0.1,0,0.1-0.1c0,0,4.5-3.8,10.2-6.3
		c5.6-2.6,18.6-3.3,18.7-3.3c0.1,0,0.2-0.1,0.2-0.2C166.9,124.2,166.8,124.1,166.8,124.1"/>
</g>
<g class="fuchszwink">
	<g class="st5">
		<path class="foxycolor" d="M154,134.3c1.7-0.2,3.1-0.8,4.5-1.9c3.2-2.3,4.3-6.9,4.3-7.1c0-0.1,0-0.2-0.2-0.3c-0.1,0-0.3,0-0.3,0.1
			l-1,1.4c-1.6,2.3-3.3,3.8-5.1,4.5c-1,0.4-1.9,0.7-2.6,0.8c0.8-1.1,1.3-2.8,1.1-4.5c-0.3-3.2-2.5-5.7-4.8-5.5c-0.4,0-0.7,0.1-1,0.3
			c0.7,0.4,1.1,1.2,0.8,2c-0.4,0.9-1.5,1.3-2.5,1c-0.3-0.1-0.5-0.2-0.7-0.4c-0.4,0.9-0.5,2.1-0.4,3.2c0.1,1.1,0.5,2.1,0.9,3
			c-1.1-0.9-2.3-2.3-3.1-4.3c-0.5-1.4-0.2-2.9,0.7-4.3c1.6-2.3,4.7-4,8.2-4.5c3.9-0.5,8.4,1,11,2.1c0.1-0.2,0.1-0.4,0.1-0.5
			c0-0.1-0.1-0.2-0.2-0.2c-0.5-0.3-7.5-4-13.3-3.2c-3.4,0.5-6.5,2.3-8.2,4.7c-0.5,0.7-0.9,1.5-1,2.3l-0.1,0c0,0-0.3,1.3-0.1,2.7
			c0.1,0.5,0.2,1,0.3,1.5c0,0.1,0,0.2,0.1,0.4c0,0.1,0.1,0.2,0.1,0.3c0,0.1,0,0.1,0.1,0.2c0.2,0.4,0.4,0.8,0.7,1.2
			c0,0.1,0.1,0.1,0.1,0.1c0.3,0.4,1,1.2,1.4,1.6C147.5,134.1,150.1,134.3,154,134.3"/>
	</g>
</g>
</svg>
